#Skyline_329_26.obj

v 180.082 0 -23.70814
v 175.4468 0 -47.01072
v 175.4468 24.96522 -47.01072
v 180.082 24.96522 -23.70814
v 167.8097 24.96522 -69.50891
v 167.8097 0 -69.50891
v 157.3013 24.96522 -90.8178
v 157.3013 0 -90.8178
v 144.1015 24.96522 -110.5728
v 144.1015 0 -110.5728
v 128.436 24.96522 -128.4358
v 128.436 0 -128.4358
v 110.573 24.96522 -144.1012
v 110.573 0 -144.1012
v 90.81799 24.96522 -157.3011
v 90.81799 0 -157.3011
v 69.50909 24.96522 -167.8095
v 69.50909 0 -167.8095
v 47.01089 24.96522 -175.4466
v 47.01089 0 -175.4466
v 23.70832 24.96522 -180.0818
v 23.70832 0 -180.0818
v 9.788477E-05 24.96522 -181.6357
v 9.788477E-05 0 -181.6357
v -23.70813 24.96522 -180.0818
v -23.70813 0 -180.0818
v -47.01069 24.96522 -175.4466
v -47.01069 0 -175.4466
v -69.5089 24.96522 -167.8095
v -69.5089 0 -167.8095
v -90.81778 24.96522 -157.3011
v -90.81778 0 -157.3011
v -110.5727 24.96522 -144.1013
v -110.5727 0 -144.1013
v -128.4358 24.96522 -128.4358
v -128.4358 0 -128.4358
v -144.1012 24.96522 -110.5728
v -144.1012 0 -110.5728
v -157.3011 24.96522 -90.81782
v -157.3011 0 -90.81782
v -167.8095 24.96522 -69.50894
v -167.8095 0 -69.50894
v -175.4466 24.96522 -47.01075
v -175.4466 0 -47.01075
v -180.0817 24.96522 -23.70819
v -180.0817 0 -23.70819
v -181.6356 24.96522 3.856084E-05
v -181.6356 0 3.856084E-05
v -180.0817 24.96522 23.70825
v -180.0817 0 23.70825
v -175.4465 24.96522 47.01082
v -175.4465 0 47.01082
v -167.8094 24.96522 69.50901
v -167.8094 0 69.50901
v -157.301 24.96522 90.81789
v -157.301 0 90.81789
v -144.1012 24.96522 110.5728
v -144.1012 0 110.5728
v -128.4358 24.96522 128.4359
v -128.4358 0 128.4359
v -110.5727 24.96522 144.1013
v -110.5727 0 144.1013
v -90.81777 24.96522 157.3012
v -90.81777 0 157.3012
v -69.50889 24.96522 167.8095
v -69.50889 0 167.8095
v -47.0107 24.96522 175.4466
v -47.0107 0 175.4466
v -23.70814 24.96522 180.0818
v -23.70814 0 180.0818
v 6.22903E-05 24.96522 181.6357
v 6.22903E-05 0 181.6357
v 23.70827 24.96522 180.0818
v 23.70827 0 180.0818
v 47.01082 24.96522 175.4466
v 47.01082 0 175.4466
v 69.50901 24.96522 167.8095
v 69.50901 0 167.8095
v 90.81786 24.96522 157.3011
v 90.81786 0 157.3011
v 110.5728 24.96522 144.1013
v 110.5728 0 144.1013
v 128.4358 24.96522 128.4358
v 128.4358 0 128.4358
v 144.1013 24.96522 110.5728
v 144.1013 0 110.5728
v 157.3011 24.96522 90.81785
v 157.3011 0 90.81785
v 167.8094 24.96522 69.509
v 167.8094 0 69.509
v 175.4466 24.96522 47.01081
v 175.4466 0 47.01081
v 180.0817 24.96522 23.70826
v 180.0817 0 23.70826
v 181.6356 24.96522 6.507142E-05
v 181.6356 0 6.507142E-05
v 180.082 24.96522 -23.70814
v 180.082 0 -23.70814

vn -0.9616449 0 0.2742975
vn -0.8648213 0 0.5020799
vn -0.8648213 0 0.5020799
vn -0.9616449 0 0.2742975
vn -0.744231 0 0.6679223
vn -0.744231 0 0.6679223
vn -0.6244113 0 0.7810957
vn -0.6244113 0 0.7810957
vn -0.5154317 0 0.8569307
vn -0.5154317 0 0.8569307
vn -0.4190565 0 0.9079602
vn -0.4190565 0 0.9079602
vn -0.3338326 0 0.9426324
vn -0.3338326 0 0.9426324
vn -0.2574838 0 0.9662826
vn -0.2574838 0 0.9662826
vn -0.187774 0 0.9822123
vn -0.187774 0 0.9822123
vn -0.1227333 0 0.9924397
vn -0.1227333 0 0.9924397
vn -0.06065054 0 0.9981591
vn -0.06065054 0 0.9981591
vn 0 0 1
vn 0 0 1
vn 0.06065054 0 0.9981591
vn 0.06065054 0 0.9981591
vn 0.1227333 0 0.9924397
vn 0.1227333 0 0.9924397
vn 0.1877739 0 0.9822123
vn 0.1877739 0 0.9822123
vn 0.2574835 0 0.9662827
vn 0.2574835 0 0.9662827
vn 0.3338327 0 0.9426324
vn 0.3338327 0 0.9426324
vn 0.4190567 0 0.9079601
vn 0.4190567 0 0.9079601
vn 0.5154316 0 0.8569307
vn 0.5154316 0 0.8569307
vn 0.6244113 0 0.7810957
vn 0.6244113 0 0.7810957
vn 0.744231 0 0.6679224
vn 0.744231 0 0.6679224
vn 0.8648215 0 0.5020795
vn 0.8648215 0 0.5020795
vn 0.9616424 0 0.2743062
vn 0.9616424 0 0.2743062
vn 1 0 0
vn 1 0 0
vn 0.961642 0 -0.2743075
vn 0.961642 0 -0.2743075
vn 0.8648209 0 -0.5020805
vn 0.8648209 0 -0.5020805
vn 0.744231 0 -0.6679223
vn 0.744231 0 -0.6679223
vn 0.6244115 0 -0.7810956
vn 0.6244115 0 -0.7810956
vn 0.5154313 0 -0.8569309
vn 0.5154313 0 -0.8569309
vn 0.4190563 0 -0.9079602
vn 0.4190563 0 -0.9079602
vn 0.3338325 0 -0.9426324
vn 0.3338325 0 -0.9426324
vn 0.2574836 0 -0.9662827
vn 0.2574836 0 -0.9662827
vn 0.1877738 0 -0.9822123
vn 0.1877738 0 -0.9822123
vn 0.1227331 0 -0.9924397
vn 0.1227331 0 -0.9924397
vn 0.06065044 0 -0.9981591
vn 0.06065044 0 -0.9981591
vn 0 0 -1
vn 0 0 -1
vn -0.06065058 0 -0.9981591
vn -0.06065058 0 -0.9981591
vn -0.1227334 0 -0.9924397
vn -0.1227334 0 -0.9924397
vn -0.1877741 0 -0.9822123
vn -0.1877741 0 -0.9822123
vn -0.2574836 0 -0.9662826
vn -0.2574836 0 -0.9662826
vn -0.3338327 0 -0.9426324
vn -0.3338327 0 -0.9426324
vn -0.4190565 0 -0.9079602
vn -0.4190565 0 -0.9079602
vn -0.5154318 0 -0.8569306
vn -0.5154318 0 -0.8569306
vn -0.6244116 0 -0.7810955
vn -0.6244116 0 -0.7810955
vn -0.744231 0 -0.6679223
vn -0.744231 0 -0.6679223
vn -0.8648213 0 -0.5020797
vn -0.8648213 0 -0.5020797
vn -0.9616423 0 -0.2743064
vn -0.9616423 0 -0.2743064
vn -1 0 0
vn -1 0 0
vn -0.9616449 0 0.2742975
vn -0.9616449 0 0.2742975

vt -3.119141 0.769043
vt -2.96875 0.769043
vt -2.96875 0.9829102
vt -3.119141 0.9829102
vt -2.818359 0.9829102
vt -2.818359 0.769043
vt -2.666016 0.9829102
vt -2.666016 0.769043
vt -2.515625 0.9829102
vt -2.515625 0.769043
vt -2.365234 0.9829102
vt -2.365234 0.769043
vt -2.214844 0.9829102
vt -2.214844 0.769043
vt -2.064453 0.9829102
vt -2.064453 0.769043
vt -1.913086 0.9829102
vt -1.913086 0.769043
vt -1.761719 0.9829102
vt -1.761719 0.769043
vt -1.611328 0.9829102
vt -1.611328 0.769043
vt -1.460938 0.9829102
vt -1.460938 0.769043
vt -1.30957 0.9829102
vt -1.30957 0.769043
vt -1.15918 0.9829102
vt -1.15918 0.769043
vt -1.007813 0.9829102
vt -1.007813 0.769043
vt -0.8574219 0.9829102
vt -0.8574219 0.769043
vt -0.706543 0.9829102
vt -0.706543 0.769043
vt -0.5556641 0.9829102
vt -0.5556641 0.769043
vt -0.4047852 0.9829102
vt -0.4047852 0.769043
vt -0.2539063 0.9829102
vt -0.2539063 0.769043
vt -0.1032104 0.9829102
vt -0.1032104 0.769043
vt 0.0475769 0.9829102
vt 0.0475769 0.769043
vt 0.1983643 0.9829102
vt 0.1983643 0.769043
vt 0.3491211 0.9829102
vt 0.3491211 0.769043
vt 0.5 0.9829102
vt 0.5 0.769043
vt 0.6508789 0.9829102
vt 0.6508789 0.769043
vt 0.8017578 0.9829102
vt 0.8017578 0.769043
vt 0.9526367 0.9829102
vt 0.9526367 0.769043
vt 1.103516 0.9829102
vt 1.103516 0.769043
vt 1.253906 0.9829102
vt 1.253906 0.769043
vt 1.405273 0.9829102
vt 1.405273 0.769043
vt 1.555664 0.9829102
vt 1.555664 0.769043
vt 1.706055 0.9829102
vt 1.706055 0.769043
vt 1.857422 0.9829102
vt 1.857422 0.769043
vt 2.007813 0.9829102
vt 2.007813 0.769043
vt 2.158203 0.9829102
vt 2.158203 0.769043
vt 2.310547 0.9829102
vt 2.310547 0.769043
vt 2.460938 0.9829102
vt 2.460938 0.769043
vt 2.611328 0.9829102
vt 2.611328 0.769043
vt 2.761719 0.9829102
vt 2.761719 0.769043
vt 2.912109 0.9829102
vt 2.912109 0.769043
vt 3.064453 0.9829102
vt 3.064453 0.769043
vt 3.214844 0.9829102
vt 3.214844 0.769043
vt 3.365234 0.9829102
vt 3.365234 0.769043
vt 3.515625 0.9829102
vt 3.515625 0.769043
vt 3.666016 0.9829102
vt 3.666016 0.769043
vt 3.818359 0.9829102
vt 3.818359 0.769043
vt 3.96875 0.9829102
vt 3.96875 0.769043
vt 4.121094 0.9829102
vt 4.121094 0.769043

g Skyline_329_26
usemtl Skyline_329_26
usemap Skyline_329_26
f 1/1/1 3/3/3 2/2/2
f 1/1/1 4/4/4 3/3/3
f 2/2/2 3/3/3 5/5/5
f 2/2/2 5/5/5 6/6/6
f 6/6/6 5/5/5 7/7/7
f 6/6/6 7/7/7 8/8/8
f 8/8/8 7/7/7 9/9/9
f 8/8/8 9/9/9 10/10/10
f 10/10/10 9/9/9 11/11/11
f 10/10/10 11/11/11 12/12/12
f 12/12/12 11/11/11 13/13/13
f 12/12/12 13/13/13 14/14/14
f 14/14/14 13/13/13 15/15/15
f 14/14/14 15/15/15 16/16/16
f 16/16/16 15/15/15 17/17/17
f 16/16/16 17/17/17 18/18/18
f 18/18/18 17/17/17 19/19/19
f 18/18/18 19/19/19 20/20/20
f 20/20/20 19/19/19 21/21/21
f 20/20/20 21/21/21 22/22/22
f 22/22/22 21/21/21 23/23/23
f 22/22/22 23/23/23 24/24/24
f 24/24/24 23/23/23 25/25/25
f 24/24/24 25/25/25 26/26/26
f 26/26/26 25/25/25 27/27/27
f 26/26/26 27/27/27 28/28/28
f 28/28/28 27/27/27 29/29/29
f 28/28/28 29/29/29 30/30/30
f 30/30/30 29/29/29 31/31/31
f 30/30/30 31/31/31 32/32/32
f 32/32/32 31/31/31 33/33/33
f 32/32/32 33/33/33 34/34/34
f 34/34/34 33/33/33 35/35/35
f 34/34/34 35/35/35 36/36/36
f 36/36/36 35/35/35 37/37/37
f 36/36/36 37/37/37 38/38/38
f 38/38/38 37/37/37 39/39/39
f 38/38/38 39/39/39 40/40/40
f 40/40/40 39/39/39 41/41/41
f 40/40/40 41/41/41 42/42/42
f 42/42/42 41/41/41 43/43/43
f 42/42/42 43/43/43 44/44/44
f 44/44/44 43/43/43 45/45/45
f 44/44/44 45/45/45 46/46/46
f 46/46/46 45/45/45 47/47/47
f 46/46/46 47/47/47 48/48/48
f 48/48/48 47/47/47 49/49/49
f 48/48/48 49/49/49 50/50/50
f 50/50/50 49/49/49 51/51/51
f 50/50/50 51/51/51 52/52/52
f 52/52/52 51/51/51 53/53/53
f 52/52/52 53/53/53 54/54/54
f 54/54/54 53/53/53 55/55/55
f 54/54/54 55/55/55 56/56/56
f 56/56/56 55/55/55 57/57/57
f 56/56/56 57/57/57 58/58/58
f 58/58/58 57/57/57 59/59/59
f 58/58/58 59/59/59 60/60/60
f 60/60/60 59/59/59 61/61/61
f 60/60/60 61/61/61 62/62/62
f 62/62/62 61/61/61 63/63/63
f 62/62/62 63/63/63 64/64/64
f 64/64/64 63/63/63 65/65/65
f 64/64/64 65/65/65 66/66/66
f 66/66/66 65/65/65 67/67/67
f 66/66/66 67/67/67 68/68/68
f 68/68/68 67/67/67 69/69/69
f 68/68/68 69/69/69 70/70/70
f 70/70/70 69/69/69 71/71/71
f 70/70/70 71/71/71 72/72/72
f 72/72/72 71/71/71 73/73/73
f 72/72/72 73/73/73 74/74/74
f 74/74/74 73/73/73 75/75/75
f 74/74/74 75/75/75 76/76/76
f 76/76/76 75/75/75 77/77/77
f 76/76/76 77/77/77 78/78/78
f 78/78/78 77/77/77 79/79/79
f 78/78/78 79/79/79 80/80/80
f 80/80/80 79/79/79 81/81/81
f 80/80/80 81/81/81 82/82/82
f 82/82/82 81/81/81 83/83/83
f 82/82/82 83/83/83 84/84/84
f 84/84/84 83/83/83 85/85/85
f 84/84/84 85/85/85 86/86/86
f 86/86/86 85/85/85 87/87/87
f 86/86/86 87/87/87 88/88/88
f 88/88/88 87/87/87 89/89/89
f 88/88/88 89/89/89 90/90/90
f 90/90/90 89/89/89 91/91/91
f 90/90/90 91/91/91 92/92/92
f 92/92/92 91/91/91 93/93/93
f 92/92/92 93/93/93 94/94/94
f 94/94/94 93/93/93 95/95/95
f 94/94/94 95/95/95 96/96/96
f 96/96/96 95/95/95 97/97/97
f 96/96/96 97/97/97 98/98/98
