#SM_Env_Skyline_02_328_25.obj

v -48.48138 0 -212.3358
v -75.78198 0 -204.1911
v -75.78198 42.28736 -204.1911
v -48.48138 42.28736 -212.3358
v -101.7859 42.28736 -192.5527
v -101.7859 0 -192.5527
v -126.0483 42.28736 -177.6197
v -126.0483 0 -177.6197
v -148.1539 42.28736 -159.6475
v -148.1539 0 -159.6475
v -167.7246 42.28736 -138.9437
v -167.7246 0 -138.9437
v -184.4255 42.28736 -115.8626
v -184.4255 0 -115.8626
v -197.9708 42.28736 -90.79897
v -197.9708 0 -90.79897
v -208.1288 42.28736 -64.18178
v -208.1288 0 -64.18178
v -214.7256 42.28736 -36.46643
v -214.7256 0 -36.46643
v -217.6484 42.28736 -8.127141
v -217.6484 0 -8.127141
v -216.8471 42.28736 20.35121
v -216.8471 0 20.35121
v -212.3356 42.28736 48.48134
v -212.3356 0 48.48134
v -204.1909 42.28736 75.78194
v -204.1909 0 75.78194
v -192.5525 42.28736 101.7859
v -192.5525 0 101.7859
v -177.6195 42.28736 126.0482
v -177.6195 0 126.0482
v -159.6473 42.28736 148.1539
v -159.6473 0 148.1539
v -138.9435 42.28736 167.7246
v -138.9435 0 167.7246
v -115.8624 42.28736 184.4255
v -115.8624 0 184.4255
v -90.79878 42.28736 197.9707
v -90.79878 0 197.9707
v -64.1816 42.28736 208.1287
v -64.1816 0 208.1287
v -36.46627 42.28736 214.7255
v -36.46627 0 214.7255
v -8.126981 42.28736 217.6483
v -8.126981 0 217.6483
v 20.35136 42.28736 216.8471
v 20.35136 0 216.8471
v 48.48149 42.28736 212.3355
v 48.48149 0 212.3355
v 75.78207 42.28736 204.1909
v 75.78207 0 204.1909
v 101.786 42.28736 192.5524
v 101.786 0 192.5524
v 126.0484 42.28736 177.6194
v 126.0484 0 177.6194
v 148.154 42.28736 159.6472
v 148.154 0 159.6472
v 167.7247 42.28736 138.9434
v 167.7247 0 138.9434
v 184.4256 42.28736 115.8623
v 184.4256 0 115.8623
v 197.9708 42.28736 90.79871
v 197.9708 0 90.79871
v 208.1288 42.28736 64.18153
v 208.1288 0 64.18153
v 214.7255 42.28736 36.46621
v 214.7255 0 36.46621
v 217.6483 42.28736 8.126929
v 217.6483 0 8.126929
v 216.8471 42.28736 -20.3514
v 216.8471 0 -20.3514
v 212.3356 42.28736 -48.48151
v 212.3356 0 -48.48151
v 204.1909 42.28736 -75.78209
v 204.1909 0 -75.78209
v 192.5525 42.28736 -101.786
v 192.5525 0 -101.786
v 177.6195 42.28736 -126.0484
v 177.6195 0 -126.0484
v 159.6473 42.28736 -148.154
v 159.6473 0 -148.154
v 138.9435 42.28736 -167.7246
v 138.9435 0 -167.7246
v 115.8624 42.28736 -184.4255
v 115.8624 0 -184.4255
v 90.79882 42.28736 -197.9708
v 90.79882 0 -197.9708
v 64.18166 42.28736 -208.1287
v 64.18166 0 -208.1287
v 36.46635 42.28736 -214.7255
v 36.46635 0 -214.7255
v 8.127078 42.28736 -217.6483
v 8.127078 0 -217.6483
v -20.35124 42.28736 -216.8471
v -20.35124 0 -216.8471
v -48.48138 42.28736 -212.3358
v -48.48138 0 -212.3358

vn 0.1047974 0 0.9944936
vn 0.1688326 0 0.9856448
vn 0.1688326 0 0.9856448
vn 0.1047974 0 0.9944936
vn 0.2370223 0 0.9715043
vn 0.2370223 0 0.9715043
vn 0.3112607 0 0.9503245
vn 0.3112607 0 0.9503245
vn 0.3937159 0 0.9192321
vn 0.3937159 0 0.9192321
vn 0.4867006 0 0.8735689
vn 0.4867006 0 0.8735689
vn 0.5920569 0 0.8058962
vn 0.5920569 0 0.8058962
vn 0.7093227 0 0.7048839
vn 0.7093227 0 0.7048839
vn 0.8314814 0 0.5555527
vn 0.8314814 0 0.5555527
vn 0.9384834 0 0.3453246
vn 0.9384834 0 0.3453246
vn 0.9967433 0 0.08064009
vn 0.9967433 0 0.08064009
vn 0.9799454 0 -0.1992666
vn 0.9799454 0 -0.1992666
vn 0.8963175 0 -0.4434129
vn 0.8963175 0 -0.4434129
vn 0.7792981 0 -0.6266533
vn 0.7792981 0 -0.6266533
vn 0.6576967 0 -0.7532828
vn 0.6576967 0 -0.7532828
vn 0.5452054 0 -0.8383026
vn 0.5452054 0 -0.8383026
vn 0.4453078 0 -0.8953776
vn 0.4453078 0 -0.8953776
vn 0.3571252 0 -0.9340565
vn 0.3571252 0 -0.9340565
vn 0.2784825 0 -0.9604414
vn 0.2784825 0 -0.9604414
vn 0.2070933 0 -0.9783212
vn 0.2070933 0 -0.9783212
vn 0.1409062 0 -0.990023
vn 0.1409062 0 -0.990023
vn 0.07814183 0 -0.9969423
vn 0.07814183 0 -0.9969423
vn 0.01723105 0 -0.9998515
vn 0.01723105 0 -0.9998515
vn -0.04327517 0 -0.9990631
vn -0.04327517 0 -0.9990631
vn -0.1047999 0 -0.9944934
vn -0.1047999 0 -0.9944934
vn -0.1688326 0 -0.9856448
vn -0.1688326 0 -0.9856448
vn -0.2370225 0 -0.9715042
vn -0.2370225 0 -0.9715042
vn -0.3112608 0 -0.9503245
vn -0.3112608 0 -0.9503245
vn -0.3937158 0 -0.9192322
vn -0.3937158 0 -0.9192322
vn -0.4867006 0 -0.8735689
vn -0.4867006 0 -0.8735689
vn -0.5920571 0 -0.805896
vn -0.5920571 0 -0.805896
vn -0.7093233 0 -0.7048833
vn -0.7093233 0 -0.7048833
vn -0.8314817 0 -0.5555521
vn -0.8314817 0 -0.5555521
vn -0.9384832 0 -0.3453248
vn -0.9384832 0 -0.3453248
vn -0.9967433 0 -0.08064012
vn -0.9967433 0 -0.08064012
vn -0.9799451 0 0.1992673
vn -0.9799451 0 0.1992673
vn -0.8963172 0 0.4434136
vn -0.8963172 0 0.4434136
vn -0.7792976 0 0.626654
vn -0.7792976 0 0.626654
vn -0.6576961 0 0.7532833
vn -0.6576961 0 0.7532833
vn -0.5452054 0 0.8383025
vn -0.5452054 0 0.8383025
vn -0.4453078 0 0.8953776
vn -0.4453078 0 0.8953776
vn -0.3571251 0 0.9340566
vn -0.3571251 0 0.9340566
vn -0.2784828 0 0.9604412
vn -0.2784828 0 0.9604412
vn -0.2070933 0 0.9783212
vn -0.2070933 0 0.9783212
vn -0.140906 0 0.990023
vn -0.140906 0 0.990023
vn -0.07814173 0 0.9969423
vn -0.07814173 0 0.9969423
vn -0.01723107 0 0.9998515
vn -0.01723107 0 0.9998515
vn 0.04327271 0 0.9990633
vn 0.04327271 0 0.9990633
vn 0.1047974 0 0.9944936
vn 0.1047974 0 0.9944936

vt -3.119141 0.2683105
vt -2.96875 0.2683105
vt -2.96875 0.4824219
vt -3.119141 0.4824219
vt -2.818359 0.4824219
vt -2.818359 0.2683105
vt -2.666016 0.4824219
vt -2.666016 0.2683105
vt -2.515625 0.4824219
vt -2.515625 0.2683105
vt -2.365234 0.4824219
vt -2.365234 0.2683105
vt -2.214844 0.4824219
vt -2.214844 0.2683105
vt -2.064453 0.4824219
vt -2.064453 0.2683105
vt -1.913086 0.4824219
vt -1.913086 0.2683105
vt -1.761719 0.4824219
vt -1.761719 0.2683105
vt -1.611328 0.4824219
vt -1.611328 0.2683105
vt -1.460938 0.4824219
vt -1.460938 0.2683105
vt -1.30957 0.4824219
vt -1.30957 0.2683105
vt -1.15918 0.4824219
vt -1.15918 0.2683105
vt -1.007813 0.4824219
vt -1.007813 0.2683105
vt -0.8574219 0.4824219
vt -0.8574219 0.2683105
vt -0.706543 0.4824219
vt -0.706543 0.2683105
vt -0.5556641 0.4824219
vt -0.5556641 0.2683105
vt -0.4047852 0.4824219
vt -0.4047852 0.2683105
vt -0.2539063 0.4824219
vt -0.2539063 0.2683105
vt -0.1032104 0.4824219
vt -0.1032104 0.2683105
vt 0.0475769 0.4824219
vt 0.0475769 0.2683105
vt 0.1983643 0.4824219
vt 0.1983643 0.2683105
vt 0.3491211 0.4824219
vt 0.3491211 0.2683105
vt 0.5 0.4824219
vt 0.5 0.2683105
vt 0.6508789 0.4824219
vt 0.6508789 0.2683105
vt 0.8017578 0.4824219
vt 0.8017578 0.2683105
vt 0.9526367 0.4824219
vt 0.9526367 0.2683105
vt 1.103516 0.4824219
vt 1.103516 0.2683105
vt 1.253906 0.4824219
vt 1.253906 0.2683105
vt 1.405273 0.4824219
vt 1.405273 0.2683105
vt 1.555664 0.4824219
vt 1.555664 0.2683105
vt 1.706055 0.4824219
vt 1.706055 0.2683105
vt 1.857422 0.4824219
vt 1.857422 0.2683105
vt 2.007813 0.4824219
vt 2.007813 0.2683105
vt 2.158203 0.4824219
vt 2.158203 0.2683105
vt 2.310547 0.4824219
vt 2.310547 0.2683105
vt 2.460938 0.4824219
vt 2.460938 0.2683105
vt 2.611328 0.4824219
vt 2.611328 0.2683105
vt 2.761719 0.4824219
vt 2.761719 0.2683105
vt 2.912109 0.4824219
vt 2.912109 0.2683105
vt 3.064453 0.4824219
vt 3.064453 0.2683105
vt 3.214844 0.4824219
vt 3.214844 0.2683105
vt 3.365234 0.4824219
vt 3.365234 0.2683105
vt 3.515625 0.4824219
vt 3.515625 0.2683105
vt 3.666016 0.4824219
vt 3.666016 0.2683105
vt 3.818359 0.4824219
vt 3.818359 0.2683105
vt 3.96875 0.4824219
vt 3.96875 0.2683105
vt 4.121094 0.4824219
vt 4.121094 0.2683105

g SM_Env_Skyline_02_328_25
usemtl SM_Env_Skyline_02_328_25
usemap SM_Env_Skyline_02_328_25
f 1/1/1 3/3/3 2/2/2
f 1/1/1 4/4/4 3/3/3
f 2/2/2 3/3/3 5/5/5
f 2/2/2 5/5/5 6/6/6
f 6/6/6 5/5/5 7/7/7
f 6/6/6 7/7/7 8/8/8
f 8/8/8 7/7/7 9/9/9
f 8/8/8 9/9/9 10/10/10
f 10/10/10 9/9/9 11/11/11
f 10/10/10 11/11/11 12/12/12
f 12/12/12 11/11/11 13/13/13
f 12/12/12 13/13/13 14/14/14
f 14/14/14 13/13/13 15/15/15
f 14/14/14 15/15/15 16/16/16
f 16/16/16 15/15/15 17/17/17
f 16/16/16 17/17/17 18/18/18
f 18/18/18 17/17/17 19/19/19
f 18/18/18 19/19/19 20/20/20
f 20/20/20 19/19/19 21/21/21
f 20/20/20 21/21/21 22/22/22
f 22/22/22 21/21/21 23/23/23
f 22/22/22 23/23/23 24/24/24
f 24/24/24 23/23/23 25/25/25
f 24/24/24 25/25/25 26/26/26
f 26/26/26 25/25/25 27/27/27
f 26/26/26 27/27/27 28/28/28
f 28/28/28 27/27/27 29/29/29
f 28/28/28 29/29/29 30/30/30
f 30/30/30 29/29/29 31/31/31
f 30/30/30 31/31/31 32/32/32
f 32/32/32 31/31/31 33/33/33
f 32/32/32 33/33/33 34/34/34
f 34/34/34 33/33/33 35/35/35
f 34/34/34 35/35/35 36/36/36
f 36/36/36 35/35/35 37/37/37
f 36/36/36 37/37/37 38/38/38
f 38/38/38 37/37/37 39/39/39
f 38/38/38 39/39/39 40/40/40
f 40/40/40 39/39/39 41/41/41
f 40/40/40 41/41/41 42/42/42
f 42/42/42 41/41/41 43/43/43
f 42/42/42 43/43/43 44/44/44
f 44/44/44 43/43/43 45/45/45
f 44/44/44 45/45/45 46/46/46
f 46/46/46 45/45/45 47/47/47
f 46/46/46 47/47/47 48/48/48
f 48/48/48 47/47/47 49/49/49
f 48/48/48 49/49/49 50/50/50
f 50/50/50 49/49/49 51/51/51
f 50/50/50 51/51/51 52/52/52
f 52/52/52 51/51/51 53/53/53
f 52/52/52 53/53/53 54/54/54
f 54/54/54 53/53/53 55/55/55
f 54/54/54 55/55/55 56/56/56
f 56/56/56 55/55/55 57/57/57
f 56/56/56 57/57/57 58/58/58
f 58/58/58 57/57/57 59/59/59
f 58/58/58 59/59/59 60/60/60
f 60/60/60 59/59/59 61/61/61
f 60/60/60 61/61/61 62/62/62
f 62/62/62 61/61/61 63/63/63
f 62/62/62 63/63/63 64/64/64
f 64/64/64 63/63/63 65/65/65
f 64/64/64 65/65/65 66/66/66
f 66/66/66 65/65/65 67/67/67
f 66/66/66 67/67/67 68/68/68
f 68/68/68 67/67/67 69/69/69
f 68/68/68 69/69/69 70/70/70
f 70/70/70 69/69/69 71/71/71
f 70/70/70 71/71/71 72/72/72
f 72/72/72 71/71/71 73/73/73
f 72/72/72 73/73/73 74/74/74
f 74/74/74 73/73/73 75/75/75
f 74/74/74 75/75/75 76/76/76
f 76/76/76 75/75/75 77/77/77
f 76/76/76 77/77/77 78/78/78
f 78/78/78 77/77/77 79/79/79
f 78/78/78 79/79/79 80/80/80
f 80/80/80 79/79/79 81/81/81
f 80/80/80 81/81/81 82/82/82
f 82/82/82 81/81/81 83/83/83
f 82/82/82 83/83/83 84/84/84
f 84/84/84 83/83/83 85/85/85
f 84/84/84 85/85/85 86/86/86
f 86/86/86 85/85/85 87/87/87
f 86/86/86 87/87/87 88/88/88
f 88/88/88 87/87/87 89/89/89
f 88/88/88 89/89/89 90/90/90
f 90/90/90 89/89/89 91/91/91
f 90/90/90 91/91/91 92/92/92
f 92/92/92 91/91/91 93/93/93
f 92/92/92 93/93/93 94/94/94
f 94/94/94 93/93/93 95/95/95
f 94/94/94 95/95/95 96/96/96
f 96/96/96 95/95/95 97/97/97
f 96/96/96 97/97/97 98/98/98
