#SM_Env_Skyline_03_333_24.obj

v -115.6083 0 -162.7853
v -135.867 0 -146.3027
v -135.867 34.11865 -146.3027
v -115.6083 34.11865 -162.7853
v -153.8009 34.11865 -127.3169
v -153.8009 0 -127.3169
v -169.1033 34.11865 -106.1526
v -169.1033 0 -106.1526
v -181.5123 34.11865 -83.17205
v -181.5123 0 -83.17205
v -190.8155 34.11865 -58.7684
v -190.8155 0 -58.7684
v -196.8539 34.11865 -33.35918
v -196.8539 0 -33.35918
v -199.524 34.11865 -7.3792
v -199.524 0 -7.3792
v -198.7802 34.11865 18.72705
v -198.7802 0 18.72705
v -194.6352 34.11865 44.51286
v -194.6352 0 44.51286
v -187.16 34.11865 69.53704
v -187.16 0 69.53704
v -176.4824 34.11865 93.37142
v -176.4824 0 93.37142
v -162.7851 34.11865 115.6082
v -162.7851 0 115.6082
v -146.3025 34.11865 135.8669
v -146.3025 0 135.8669
v -127.3167 34.11865 153.8008
v -127.3167 0 153.8008
v -106.1525 34.11865 169.1032
v -106.1525 0 169.1032
v -83.1719 34.11865 181.5122
v -83.1719 0 181.5122
v -58.76823 34.11865 190.8154
v -58.76823 0 190.8154
v -33.35904 34.11865 196.8538
v -33.35904 0 196.8538
v -7.379052 34.11865 199.5239
v -7.379052 0 199.5239
v 18.72718 34.11865 198.7801
v 18.72718 0 198.7801
v 44.51298 34.11865 194.6351
v 44.51298 0 194.6351
v 69.53715 34.11865 187.1599
v 69.53715 0 187.1599
v 93.37154 34.11865 176.4822
v 93.37154 0 176.4822
v 115.6083 34.11865 162.785
v 115.6083 0 162.785
v 135.8669 34.11865 146.3024
v 135.8669 0 146.3024
v 153.8009 34.11865 127.3166
v 153.8009 0 127.3166
v 169.1033 34.11865 106.1523
v 169.1033 0 106.1523
v 181.5123 34.11865 83.17177
v 181.5123 0 83.17177
v 190.8155 34.11865 58.76812
v 190.8155 0 58.76812
v 196.8539 34.11865 33.35893
v 196.8539 0 33.35893
v 199.5239 34.11865 7.378962
v 199.5239 0 7.378962
v 198.7801 34.11865 -18.72726
v 198.7801 0 -18.72726
v 194.6351 34.11865 -44.51305
v 194.6351 0 -44.51305
v 187.1599 34.11865 -69.53722
v 187.1599 0 -69.53722
v 176.4823 34.11865 -93.37157
v 176.4823 0 -93.37157
v 162.785 34.11865 -115.6083
v 162.785 0 -115.6083
v 146.3025 34.11865 -135.867
v 146.3025 0 -135.867
v 127.3166 34.11865 -153.8009
v 127.3166 0 -153.8009
v 106.1524 34.11865 -169.1033
v 106.1524 0 -169.1033
v 83.17188 34.11865 -181.5122
v 83.17188 0 -181.5122
v 58.76821 34.11865 -190.8155
v 58.76821 0 -190.8155
v 33.35904 34.11865 -196.8538
v 33.35904 0 -196.8538
v 7.379078 34.11865 -199.5239
v 7.379078 0 -199.5239
v -18.72713 34.11865 -198.7801
v -18.72713 0 -198.7801
v -44.51292 34.11865 -194.6351
v -44.51292 0 -194.6351
v -69.53706 34.11865 -187.1599
v -69.53706 0 -187.1599
v -93.37142 34.11865 -176.4823
v -93.37142 0 -176.4823
v -115.6083 34.11865 -162.7853
v -115.6083 0 -162.7853

vn 0.3114701 0 0.950256
vn 0.3939536 0 0.9191304
vn 0.3939536 0 0.9191304
vn 0.3114701 0 0.950256
vn 0.4869697 0 0.8734189
vn 0.4869697 0 0.8734189
vn 0.592361 0 0.8056727
vn 0.592361 0 0.8056727
vn 0.7096547 0 0.7045497
vn 0.7096547 0 0.7045497
vn 0.8318062 0 0.5550662
vn 0.8318062 0 0.5550662
vn 0.9387246 0 0.3446683
vn 0.9387246 0 0.3446683
vn 0.9968048 0 0.07987585
vn 0.9968048 0 0.07987585
vn 0.9797961 0 -0.199999
vn 0.9797961 0 -0.199999
vn 0.8960275 0 -0.4439984
vn 0.8960275 0 -0.4439984
vn 0.7789639 0 -0.6270688
vn 0.7789639 0 -0.6270688
vn 0.6573746 0 -0.7535639
vn 0.6573746 0 -0.7535639
vn 0.5449161 0 -0.8384906
vn 0.5449161 0 -0.8384906
vn 0.4450531 0 -0.8955042
vn 0.4450531 0 -0.8955042
vn 0.3568994 0 -0.9341428
vn 0.3568994 0 -0.9341428
vn 0.2782795 0 -0.9605001
vn 0.2782795 0 -0.9605001
vn 0.2069071 0 -0.9783606
vn 0.2069071 0 -0.9783606
vn 0.1407313 0 -0.9900478
vn 0.1407313 0 -0.9900478
vn 0.07797432 0 -0.9969554
vn 0.07797432 0 -0.9969554
vn 0.01706673 0 -0.9998543
vn 0.01706673 0 -0.9998543
vn -0.04344057 0 -0.999056
vn -0.04344057 0 -0.999056
vn -0.1049702 0 -0.9944754
vn -0.1049702 0 -0.9944754
vn -0.1690119 0 -0.985614
vn -0.1690119 0 -0.985614
vn -0.2372154 0 -0.9714571
vn -0.2372154 0 -0.9714571
vn -0.3114731 0 -0.950255
vn -0.3114731 0 -0.950255
vn -0.3939537 0 -0.9191303
vn -0.3939537 0 -0.9191303
vn -0.4869699 0 -0.8734187
vn -0.4869699 0 -0.8734187
vn -0.5923613 0 -0.8056725
vn -0.5923613 0 -0.8056725
vn -0.7096544 0 -0.70455
vn -0.7096544 0 -0.70455
vn -0.8318057 0 -0.5550669
vn -0.8318057 0 -0.5550669
vn -0.9387246 0 -0.3446679
vn -0.9387246 0 -0.3446679
vn -0.996805 0 -0.07987339
vn -0.996805 0 -0.07987339
vn -0.9797959 0 0.1999998
vn -0.9797959 0 0.1999998
vn -0.8960277 0 0.4439982
vn -0.8960277 0 0.4439982
vn -0.7789631 0 0.6270698
vn -0.7789631 0 0.6270698
vn -0.6573742 0 0.7535643
vn -0.6573742 0 0.7535643
vn -0.544916 0 0.8384907
vn -0.544916 0 0.8384907
vn -0.4450525 0 0.8955045
vn -0.4450525 0 0.8955045
vn -0.3568991 0 0.9341429
vn -0.3568991 0 0.9341429
vn -0.2782795 0 0.9605001
vn -0.2782795 0 0.9605001
vn -0.2069073 0 0.9783605
vn -0.2069073 0 0.9783605
vn -0.1407314 0 0.9900478
vn -0.1407314 0 0.9900478
vn -0.07797413 0 0.9969554
vn -0.07797413 0 0.9969554
vn -0.01706648 0 0.9998543
vn -0.01706648 0 0.9998543
vn 0.0434406 0 0.999056
vn 0.0434406 0 0.999056
vn 0.10497 0 0.9944754
vn 0.10497 0 0.9944754
vn 0.1690119 0 0.985614
vn 0.1690119 0 0.985614
vn 0.2372128 0 0.9714577
vn 0.2372128 0 0.9714577
vn 0.3114701 0 0.950256
vn 0.3114701 0 0.950256

vt -3.119141 0.5205078
vt -2.96875 0.5205078
vt -2.96875 0.7348633
vt -3.119141 0.7348633
vt -2.818359 0.7348633
vt -2.818359 0.5205078
vt -2.666016 0.7348633
vt -2.666016 0.5205078
vt -2.515625 0.7348633
vt -2.515625 0.5205078
vt -2.365234 0.7348633
vt -2.365234 0.5205078
vt -2.214844 0.7348633
vt -2.214844 0.5205078
vt -2.064453 0.7348633
vt -2.064453 0.5205078
vt -1.913086 0.7348633
vt -1.913086 0.5205078
vt -1.761719 0.7348633
vt -1.761719 0.5205078
vt -1.611328 0.7348633
vt -1.611328 0.5205078
vt -1.460938 0.7348633
vt -1.460938 0.5205078
vt -1.30957 0.7348633
vt -1.30957 0.5205078
vt -1.15918 0.7348633
vt -1.15918 0.5205078
vt -1.007813 0.7348633
vt -1.007813 0.5205078
vt -0.8574219 0.7348633
vt -0.8574219 0.5205078
vt -0.706543 0.7348633
vt -0.706543 0.5205078
vt -0.5556641 0.7348633
vt -0.5556641 0.5205078
vt -0.4047852 0.7348633
vt -0.4047852 0.5205078
vt -0.2539063 0.7348633
vt -0.2539063 0.5205078
vt -0.1032104 0.7348633
vt -0.1032104 0.5205078
vt 0.0475769 0.7348633
vt 0.0475769 0.5205078
vt 0.1983643 0.7348633
vt 0.1983643 0.5205078
vt 0.3491211 0.7348633
vt 0.3491211 0.5205078
vt 0.5 0.7348633
vt 0.5 0.5205078
vt 0.6508789 0.7348633
vt 0.6508789 0.5205078
vt 0.8017578 0.7348633
vt 0.8017578 0.5205078
vt 0.9526367 0.7348633
vt 0.9526367 0.5205078
vt 1.103516 0.7348633
vt 1.103516 0.5205078
vt 1.253906 0.7348633
vt 1.253906 0.5205078
vt 1.405273 0.7348633
vt 1.405273 0.5205078
vt 1.555664 0.7348633
vt 1.555664 0.5205078
vt 1.706055 0.7348633
vt 1.706055 0.5205078
vt 1.857422 0.7348633
vt 1.857422 0.5205078
vt 2.007813 0.7348633
vt 2.007813 0.5205078
vt 2.158203 0.7348633
vt 2.158203 0.5205078
vt 2.310547 0.7348633
vt 2.310547 0.5205078
vt 2.460938 0.7348633
vt 2.460938 0.5205078
vt 2.611328 0.7348633
vt 2.611328 0.5205078
vt 2.761719 0.7348633
vt 2.761719 0.5205078
vt 2.912109 0.7348633
vt 2.912109 0.5205078
vt 3.064453 0.7348633
vt 3.064453 0.5205078
vt 3.214844 0.7348633
vt 3.214844 0.5205078
vt 3.365234 0.7348633
vt 3.365234 0.5205078
vt 3.515625 0.7348633
vt 3.515625 0.5205078
vt 3.666016 0.7348633
vt 3.666016 0.5205078
vt 3.818359 0.7348633
vt 3.818359 0.5205078
vt 3.96875 0.7348633
vt 3.96875 0.5205078
vt 4.121094 0.7348633
vt 4.121094 0.5205078

g SM_Env_Skyline_03_333_24
usemtl SM_Env_Skyline_03_333_24
usemap SM_Env_Skyline_03_333_24
f 1/1/1 3/3/3 2/2/2
f 1/1/1 4/4/4 3/3/3
f 2/2/2 3/3/3 5/5/5
f 2/2/2 5/5/5 6/6/6
f 6/6/6 5/5/5 7/7/7
f 6/6/6 7/7/7 8/8/8
f 8/8/8 7/7/7 9/9/9
f 8/8/8 9/9/9 10/10/10
f 10/10/10 9/9/9 11/11/11
f 10/10/10 11/11/11 12/12/12
f 12/12/12 11/11/11 13/13/13
f 12/12/12 13/13/13 14/14/14
f 14/14/14 13/13/13 15/15/15
f 14/14/14 15/15/15 16/16/16
f 16/16/16 15/15/15 17/17/17
f 16/16/16 17/17/17 18/18/18
f 18/18/18 17/17/17 19/19/19
f 18/18/18 19/19/19 20/20/20
f 20/20/20 19/19/19 21/21/21
f 20/20/20 21/21/21 22/22/22
f 22/22/22 21/21/21 23/23/23
f 22/22/22 23/23/23 24/24/24
f 24/24/24 23/23/23 25/25/25
f 24/24/24 25/25/25 26/26/26
f 26/26/26 25/25/25 27/27/27
f 26/26/26 27/27/27 28/28/28
f 28/28/28 27/27/27 29/29/29
f 28/28/28 29/29/29 30/30/30
f 30/30/30 29/29/29 31/31/31
f 30/30/30 31/31/31 32/32/32
f 32/32/32 31/31/31 33/33/33
f 32/32/32 33/33/33 34/34/34
f 34/34/34 33/33/33 35/35/35
f 34/34/34 35/35/35 36/36/36
f 36/36/36 35/35/35 37/37/37
f 36/36/36 37/37/37 38/38/38
f 38/38/38 37/37/37 39/39/39
f 38/38/38 39/39/39 40/40/40
f 40/40/40 39/39/39 41/41/41
f 40/40/40 41/41/41 42/42/42
f 42/42/42 41/41/41 43/43/43
f 42/42/42 43/43/43 44/44/44
f 44/44/44 43/43/43 45/45/45
f 44/44/44 45/45/45 46/46/46
f 46/46/46 45/45/45 47/47/47
f 46/46/46 47/47/47 48/48/48
f 48/48/48 47/47/47 49/49/49
f 48/48/48 49/49/49 50/50/50
f 50/50/50 49/49/49 51/51/51
f 50/50/50 51/51/51 52/52/52
f 52/52/52 51/51/51 53/53/53
f 52/52/52 53/53/53 54/54/54
f 54/54/54 53/53/53 55/55/55
f 54/54/54 55/55/55 56/56/56
f 56/56/56 55/55/55 57/57/57
f 56/56/56 57/57/57 58/58/58
f 58/58/58 57/57/57 59/59/59
f 58/58/58 59/59/59 60/60/60
f 60/60/60 59/59/59 61/61/61
f 60/60/60 61/61/61 62/62/62
f 62/62/62 61/61/61 63/63/63
f 62/62/62 63/63/63 64/64/64
f 64/64/64 63/63/63 65/65/65
f 64/64/64 65/65/65 66/66/66
f 66/66/66 65/65/65 67/67/67
f 66/66/66 67/67/67 68/68/68
f 68/68/68 67/67/67 69/69/69
f 68/68/68 69/69/69 70/70/70
f 70/70/70 69/69/69 71/71/71
f 70/70/70 71/71/71 72/72/72
f 72/72/72 71/71/71 73/73/73
f 72/72/72 73/73/73 74/74/74
f 74/74/74 73/73/73 75/75/75
f 74/74/74 75/75/75 76/76/76
f 76/76/76 75/75/75 77/77/77
f 76/76/76 77/77/77 78/78/78
f 78/78/78 77/77/77 79/79/79
f 78/78/78 79/79/79 80/80/80
f 80/80/80 79/79/79 81/81/81
f 80/80/80 81/81/81 82/82/82
f 82/82/82 81/81/81 83/83/83
f 82/82/82 83/83/83 84/84/84
f 84/84/84 83/83/83 85/85/85
f 84/84/84 85/85/85 86/86/86
f 86/86/86 85/85/85 87/87/87
f 86/86/86 87/87/87 88/88/88
f 88/88/88 87/87/87 89/89/89
f 88/88/88 89/89/89 90/90/90
f 90/90/90 89/89/89 91/91/91
f 90/90/90 91/91/91 92/92/92
f 92/92/92 91/91/91 93/93/93
f 92/92/92 93/93/93 94/94/94
f 94/94/94 93/93/93 95/95/95
f 94/94/94 95/95/95 96/96/96
f 96/96/96 95/95/95 97/97/97
f 96/96/96 97/97/97 98/98/98
