#SM_Env_Sidewalk_Straight_01_(4)_334_5.obj

v 2.892521 -7.450581E-09 1.7711E-16
v -1.907349E-06 -3.72529E-09 -1.167876E-22
v 0.03359032 -0.05417279 -0.08034897
v 2.911961 -0.07730597 -0.1457481
v 5.000004 -3.72529E-09 3.061519E-16
v 4.955285 -0.05417279 -0.08034897
v 5.000004 -0.05417279 -0.08034897
v -1.907349E-06 -0.05417279 -0.08034897
v 0.03359032 0.06969654 -1.023066
v 2.43826 0.06969654 -1.063629
v 2.438259 0.06969654 -0.7143478
v 0.03359032 0.06969654 -0.6737823
v 4.931534 0.06969654 -0.6737823
v 4.93314 0.06969654 -1.023064
v 0.09117317 -7.450581E-09 -1.10885
v 2.408173 -7.450581E-09 -1.114353
v 2.43826 0.06969654 -1.063629
v 0.03359032 0.06969654 -1.023066
v 2.495175 -7.450581E-09 -1.136917
v 4.93314 0.06969654 -1.023064
v 4.948941 -7.450581E-09 -1.083778
v 0.03359032 0.06969654 -0.6737823
v 2.438259 0.06969654 -0.7143478
v 2.438259 -0.2302948 -0.6280136
v 0.03359032 -0.2302948 -0.5874481
v 4.948014 -0.2302948 -0.5874481
v 4.931534 0.06969654 -0.6737823
v 0.03359079 -7.450581E-09 -3.200001
v 2.516019 -7.450581E-09 -3.145386
v 2.516019 0.01793588 -3.091965
v 0.03358889 -7.450581E-09 -3.146578
v 0.03359032 -0.2302948 -0.5874481
v 2.438259 -0.2302948 -0.6280136
v 2.878944 -0.08353826 -0.2188797
v 0.03358841 -0.08353826 -0.2654285
v 4.955288 -0.08353826 -0.2654266
v 4.948014 -0.2302948 -0.5874481
v 0.03358841 -0.08353826 -0.2654285
v 2.878944 -0.08353826 -0.2188797
v 2.911961 -0.07730597 -0.1457481
v 0.03359032 -0.05417279 -0.08034897
v 4.955285 -0.05417279 -0.08034897
v 4.955288 -0.08353826 -0.2654266
v 0.03359079 -7.450581E-09 -4.999996
v 2.439847 -7.450581E-09 -5
v 2.516019 -7.450581E-09 -3.145386
v 0.03359079 -7.450581E-09 -3.200001
v 0.03358889 -7.450581E-09 -3.146578
v 2.516019 0.01793588 -3.091965
v 2.408173 -7.450581E-09 -1.114353
v 0.09117317 -7.450581E-09 -1.10885
v 4.955288 -0.08353826 -0.2654266
v 5.000004 -0.08353826 -0.2654266
v 5.000004 -0.05417279 -0.08034897
v 4.955285 -0.05417279 -0.08034897
v 4.948014 -0.2302948 -0.5874481
v 5.000004 -0.2302948 -0.5874481
v 5.000004 -0.08353826 -0.2654266
v 4.955288 -0.08353826 -0.2654266
v 4.931534 0.06969654 -0.6737823
v 5.000004 0.06969652 -0.6737823
v 5.000004 -0.2302948 -0.5874481
v 4.948014 -0.2302948 -0.5874481
v 4.93314 0.06969654 -1.023064
v 5.000004 0.06969652 -1.023064
v 5.000004 0.06969652 -0.6737823
v 4.931534 0.06969654 -0.6737823
v 4.948941 -7.450581E-09 -1.083778
v 5.000004 -7.450581E-09 -1.073784
v 5.000004 0.06969652 -1.023064
v 4.93314 0.06969654 -1.023064
v 4.973599 -7.450581E-09 -3.146576
v 5.000005 -7.450581E-09 -3.173286
v 5.000004 -7.450581E-09 -1.073784
v 4.948941 -7.450581E-09 -1.083778
v 4.943868 -7.450581E-09 -3.217865
v 4.973596 -7.450581E-09 -4.999996
v 5.000005 -7.450581E-09 -5
v 2.408173 -7.450581E-09 -1.114353
v 2.495175 -7.450581E-09 -1.136917
v 2.43826 0.06969654 -1.063629
v 2.516019 0.01793588 -3.091965
v 2.603486 0.05142861 -3.062252
v 2.495175 -7.450581E-09 -1.136917
v 2.408173 -7.450581E-09 -1.114353
v 2.516019 -7.450581E-09 -3.145386
v 2.587296 0.005824201 -3.151981
v 2.603486 0.05142861 -3.062252
v 2.439847 -7.450581E-09 -5
v 2.533475 -7.450581E-09 -5
v 2.587296 0.005824201 -3.151981
v 2.516019 -7.450581E-09 -3.145386
v 2.533475 -7.450581E-09 -5
v 4.973596 -7.450581E-09 -4.999996
v 4.943868 -7.450581E-09 -3.217865
v 2.587296 0.005824201 -3.151981
v 2.587296 0.005824201 -3.151981
v 4.943868 -7.450581E-09 -3.217865
v 4.973599 -7.450581E-09 -3.146576
v 2.603486 0.05142861 -3.062252
v 2.603486 0.05142861 -3.062252
v 4.973599 -7.450581E-09 -3.146576
v 4.948941 -7.450581E-09 -1.083778
v 2.495175 -7.450581E-09 -1.136917
v -1.430511E-06 -7.450581E-09 -3.17329
v -1.430511E-06 -7.450581E-09 -4.999996
v 0.03359079 -7.450581E-09 -4.999996
v 0.03359079 -7.450581E-09 -3.200001
v 0.03358889 -7.450581E-09 -3.146578
v -1.907349E-06 -7.450581E-09 -1.073786
v 0.09117317 -7.450581E-09 -1.10885
v -1.907349E-06 0.06969652 -1.023066
v -1.907349E-06 -7.450581E-09 -1.073786
v 0.09117317 -7.450581E-09 -1.10885
v 0.03359032 0.06969654 -1.023066
v -1.907349E-06 0.06969652 -0.6737823
v -1.907349E-06 0.06969652 -1.023066
v 0.03359032 0.06969654 -1.023066
v 0.03359032 0.06969654 -0.6737823
v -1.907349E-06 -0.2302948 -0.5874481
v -1.907349E-06 0.06969652 -0.6737823
v 0.03359032 0.06969654 -0.6737823
v 0.03359032 -0.2302948 -0.5874481
v -1.907349E-06 -0.08353826 -0.2654266
v -1.907349E-06 -0.2302948 -0.5874481
v 0.03359032 -0.2302948 -0.5874481
v 0.03358841 -0.08353826 -0.2654285
v -1.907349E-06 -0.05417279 -0.08034897
v -1.907349E-06 -0.08353826 -0.2654266
v 0.03358841 -0.08353826 -0.2654285
v 0.03359032 -0.05417279 -0.08034897
v 2.516019 -7.450581E-09 -3.145386
v 2.603486 0.05142861 -3.062252
v 2.516019 0.01793588 -3.091965

vn 0.5030234 0.8642728 0.0004353451
vn 0.531348 0.8471529 -0.001119015
vn 0.531348 0.8471529 -0.001119015
vn 0.5030234 0.8642728 0.0004353451
vn 0.5312829 0.8471931 0.001554668
vn 0.5312829 0.8471931 0.001554668
vn 0.5590278 0.8291489 6.66413E-08
vn 0.5590278 0.8291489 6.66413E-08
vn 0 1 0
vn 0 1 0
vn 0 1 0
vn 0 1 0
vn 0 1 0
vn 0 1 0
vn 0.7151299 0.698957 -0.006976977
vn 0.7151299 0.698957 -0.006976977
vn 0.71625 0.6978361 0.003302817
vn 0.7151299 0.698957 -0.006976977
vn 0.7172926 0.6966398 0.01358225
vn 0.7172926 0.6966398 0.01358225
vn 0.7172926 0.6966398 0.01358225
vn -0.9609641 0.2765549 0.00810483
vn -0.9610525 0.2763663 0.0003126971
vn -0.9610525 0.2763663 0.0003126971
vn -0.9609641 0.2765549 0.00810483
vn -0.9610233 0.2763579 -0.007792259
vn -0.9610233 0.2763579 -0.007792259
vn 0.1655535 0.9862007 7.952053E-05
vn 0.1655535 0.9862007 7.952053E-05
vn 0.1655535 0.9862007 7.952053E-05
vn 0.1655535 0.9862007 7.952053E-05
vn 0.3938339 0.9191815 0.0002125177
vn 0.372523 0.928023 -3.031702E-05
vn 0.372523 0.928023 -3.031702E-05
vn 0.3938339 0.9191815 0.0002125177
vn 0.3935969 0.9192831 -0.0002427946
vn 0.3935969 0.9192831 -0.0002427946
vn 0.1468679 0.9891545 0.001776229
vn 0.1364847 0.9906419 -0.0006943536
vn 0.1364847 0.9906419 -0.0006943536
vn 0.1468679 0.9891545 0.001776229
vn 0.1463365 0.9892318 -0.002470611
vn 0.1463365 0.9892318 -0.002470611
vn 0 1 0
vn 0.0001661996 0.9998441 -0.01765762
vn 0.0001661996 0.9998441 -0.01765762
vn 0 1 0
vn -0.001473147 0.9999981 -0.001260754
vn -0.004419424 0.9999831 -0.003782247
vn -0.004419424 0.9999831 -0.003782247
vn -0.002209721 0.9999958 -0.001891132
vn 0.1463365 0.9892318 -0.002470611
vn 0.1567054 0.9876454 1.868074E-08
vn 0.1567054 0.9876454 1.868074E-08
vn 0.1463365 0.9892318 -0.002470611
vn 0.3935969 0.9192831 -0.0002427946
vn 0.4147002 0.9099582 4.94361E-08
vn 0.4147002 0.9099582 4.94361E-08
vn 0.3935969 0.9192831 -0.0002427946
vn -0.9610233 0.2763579 -0.007792259
vn -0.9609957 0.276564 -1.145596E-07
vn -0.9609957 0.276564 -1.145596E-07
vn -0.9610233 0.2763579 -0.007792259
vn 0 1 0
vn 0 1 0
vn 0 1 0
vn 0 1 0
vn 0.7757483 0.6276084 0.06574581
vn 0.7757483 0.6276084 0.06574581
vn 0.7757483 0.6276084 0.06574581
vn 0.7757483 0.6276084 0.06574581
vn -0.004417411 0.9999839 0.003581907
vn 0 1 0
vn 0 1 0
vn -0.006626143 0.9999636 0.005372882
vn 0.000537436 0.9999998 0.000397356
vn 0.0008061542 0.9999995 0.000596034
vn 0 1 0
vn 0.7511316 0.6307551 -0.194806
vn 0.7511316 0.6307551 -0.194806
vn 0.7511316 0.6307551 -0.194806
vn -0.006996045 0.9819909 -0.188799
vn -0.006996045 0.9819909 -0.188799
vn -0.006996045 0.9819909 -0.188799
vn -0.006996045 0.9819909 -0.188799
vn 0.4338672 0.8938392 -0.1131845
vn 0.4338672 0.8938392 -0.1131845
vn 0.4338672 0.8938392 -0.1131845
vn 0.0001661996 0.9998441 -0.01765762
vn 0.0009724897 0.999854 -0.01706167
vn 0.0009724897 0.999854 -0.01706167
vn 0.0001661996 0.9998441 -0.01765762
vn 0.0009724897 0.999854 -0.01706167
vn 0.0008061542 0.9999995 0.000596034
vn 0.000537436 0.9999998 0.000397356
vn 0.0009724897 0.999854 -0.01706167
vn 0.273288 0.9619277 0.002966842
vn 0.273288 0.9619277 0.002966842
vn 0.273288 0.9619277 0.002966842
vn 0.273288 0.9619277 0.002966842
vn -0.0132518 0.9998544 0.01074537
vn -0.004417411 0.9999839 0.003581907
vn -0.006626143 0.9999636 0.005372882
vn -0.0132518 0.9998544 0.01074537
vn 0 1 0
vn 0 1 0
vn 0 1 0
vn 0 1 0
vn -0.001473147 0.9999981 -0.001260754
vn 0 1 0
vn -0.002209721 0.9999958 -0.001891132
vn 0.7404215 0.6391206 -0.2080887
vn 0.7404215 0.6391206 -0.2080887
vn 0.7404215 0.6391206 -0.2080887
vn 0.7404215 0.6391206 -0.2080887
vn 0 1 0
vn 0 1 0
vn 0 1 0
vn 0 1 0
vn -0.9609957 0.276564 -1.145596E-07
vn -0.9609957 0.276564 -1.145596E-07
vn -0.9609641 0.2765549 0.00810483
vn -0.9609641 0.2765549 0.00810483
vn 0.4147012 0.9099577 4.943623E-08
vn 0.4147012 0.9099577 4.943623E-08
vn 0.3938339 0.9191815 0.0002125177
vn 0.3938339 0.9191815 0.0002125177
vn 0.1567046 0.9876456 1.868065E-08
vn 0.1567046 0.9876456 1.868065E-08
vn 0.1468679 0.9891545 0.001776229
vn 0.1468679 0.9891545 0.001776229
vn 0.3084247 0.9186252 -0.2469857
vn 0.3084247 0.9186252 -0.2469857
vn 0.3084247 0.9186252 -0.2469857

vt 0.06616211 0.2094727
vt 0.06616211 0.2094727
vt 0.06616211 0.2094727
vt 0.06616211 0.2094727
vt 0.06616211 0.2094727
vt 0.06616211 0.2094727
vt 0.06616211 0.2094727
vt 0.06616211 0.2094727
vt 0.1021729 0.3076172
vt 0.1021729 0.3076172
vt 0.1021729 0.3076172
vt 0.1021729 0.3076172
vt 0.1021729 0.3076172
vt 0.1021729 0.3076172
vt 0.1021729 0.3076172
vt 0.1021729 0.3076172
vt 0.1021729 0.3076172
vt 0.1021729 0.3076172
vt 0.1021729 0.3076172
vt 0.1021729 0.3076172
vt 0.1021729 0.3076172
vt 0.1021729 0.3076172
vt 0.1021729 0.3076172
vt 0.1021729 0.3076172
vt 0.1021729 0.3076172
vt 0.1021729 0.3076172
vt 0.1021729 0.3076172
vt 0.1027222 0.2993164
vt 0.1027222 0.2993164
vt 0.1027222 0.2993164
vt 0.1027222 0.2993164
vt 0.1021729 0.3076172
vt 0.1021729 0.3076172
vt 0.1021729 0.3076172
vt 0.1021729 0.3076172
vt 0.1021729 0.3076172
vt 0.1021729 0.3076172
vt 0.1021729 0.3076172
vt 0.1021729 0.3076172
vt 0.1021729 0.3076172
vt 0.1021729 0.3076172
vt 0.1021729 0.3076172
vt 0.1021729 0.3076172
vt 0.1022949 0.3276367
vt 0.1022949 0.3276367
vt 0.1022949 0.3276367
vt 0.1022949 0.3276367
vt 0.1022949 0.3276367
vt 0.1022949 0.3276367
vt 0.1022949 0.3276367
vt 0.1022949 0.3276367
vt 0.102478 0.2792969
vt 0.102478 0.2792969
vt 0.102478 0.2792969
vt 0.102478 0.2792969
vt 0.102478 0.2792969
vt 0.102478 0.2792969
vt 0.102478 0.2792969
vt 0.102478 0.2792969
vt 0.102478 0.2792969
vt 0.102478 0.2792969
vt 0.102478 0.2792969
vt 0.102478 0.2792969
vt 0.102478 0.2792969
vt 0.102478 0.2792969
vt 0.102478 0.2792969
vt 0.102478 0.2792969
vt 0.102478 0.2792969
vt 0.102478 0.2792969
vt 0.102478 0.2792969
vt 0.102478 0.2792969
vt 0.1027222 0.2993164
vt 0.1027222 0.2993164
vt 0.1027222 0.2993164
vt 0.1027222 0.2993164
vt 0.1027222 0.2993164
vt 0.1027222 0.2993164
vt 0.1027222 0.2993164
vt 0.102478 0.3017578
vt 0.102478 0.3017578
vt 0.102478 0.3017578
vt 0.1027222 0.2993164
vt 0.1027222 0.2993164
vt 0.1027222 0.2993164
vt 0.1027222 0.2993164
vt 0.1027222 0.2993164
vt 0.1027222 0.2993164
vt 0.1027222 0.2993164
vt 0.1027222 0.2993164
vt 0.1027222 0.2993164
vt 0.1027222 0.2993164
vt 0.1027222 0.2993164
vt 0.1022949 0.3276367
vt 0.1022949 0.3276367
vt 0.1022949 0.3276367
vt 0.1022949 0.3276367
vt 0.1027222 0.2993164
vt 0.1027222 0.2993164
vt 0.1027222 0.2993164
vt 0.1027222 0.2993164
vt 0.1022949 0.3276367
vt 0.1022949 0.3276367
vt 0.1022949 0.3276367
vt 0.1022949 0.3276367
vt 0.1027222 0.2993164
vt 0.1027222 0.2993164
vt 0.1027222 0.2993164
vt 0.1027222 0.2993164
vt 0.1027222 0.2993164
vt 0.1027222 0.2993164
vt 0.1027222 0.2993164
vt 0.102478 0.2792969
vt 0.102478 0.2792969
vt 0.102478 0.2792969
vt 0.102478 0.2792969
vt 0.102478 0.2792969
vt 0.102478 0.2792969
vt 0.102478 0.2792969
vt 0.102478 0.2792969
vt 0.102478 0.2792969
vt 0.102478 0.2792969
vt 0.102478 0.2792969
vt 0.102478 0.2792969
vt 0.102478 0.2792969
vt 0.102478 0.2792969
vt 0.102478 0.2792969
vt 0.102478 0.2792969
vt 0.102478 0.2792969
vt 0.102478 0.2792969
vt 0.102478 0.2792969
vt 0.102478 0.2792969
vt 0.1027222 0.2993164
vt 0.1027222 0.2993164
vt 0.1027222 0.2993164

g SM_Env_Sidewalk_Straight_01_(4)_334_5
usemtl SM_Env_Sidewalk_Straight_01_(4)_334_5
usemap SM_Env_Sidewalk_Straight_01_(4)_334_5
f 1/1/1 3/3/3 2/2/2
f 1/1/1 4/4/4 3/3/3
f 5/5/5 4/4/4 1/1/1
f 5/5/5 6/6/6 4/4/4
f 5/5/5 7/7/7 6/6/6
f 2/2/2 3/3/3 8/8/8
f 9/9/9 11/11/11 10/10/10
f 9/9/9 12/12/12 11/11/11
f 10/10/10 11/11/11 13/13/13
f 10/10/10 13/13/13 14/14/14
f 15/15/15 17/17/17 16/16/16
f 15/15/15 18/18/18 17/17/17
f 19/19/19 17/17/17 20/20/20
f 19/19/19 20/20/20 21/21/21
f 22/22/22 24/24/24 23/23/23
f 22/22/22 25/25/25 24/24/24
f 23/23/23 24/24/24 26/26/26
f 23/23/23 26/26/26 27/27/27
f 28/28/28 30/30/30 29/29/29
f 28/28/28 31/31/31 30/30/30
f 32/32/32 34/34/34 33/33/33
f 32/32/32 35/35/35 34/34/34
f 33/33/33 34/34/34 36/36/36
f 33/33/33 36/36/36 37/37/37
f 38/38/38 40/40/40 39/39/39
f 38/38/38 41/41/41 40/40/40
f 39/39/39 40/40/40 42/42/42
f 39/39/39 42/42/42 43/43/43
f 44/44/44 46/46/46 45/45/45
f 44/44/44 47/47/47 46/46/46
f 48/48/48 50/50/50 49/49/49
f 48/48/48 51/51/51 50/50/50
f 52/52/52 54/54/54 53/53/53
f 52/52/52 55/55/55 54/54/54
f 56/56/56 58/58/58 57/57/57
f 56/56/56 59/59/59 58/58/58
f 60/60/60 62/62/62 61/61/61
f 60/60/60 63/63/63 62/62/62
f 64/64/64 66/66/66 65/65/65
f 64/64/64 67/67/67 66/66/66
f 68/68/68 70/70/70 69/69/69
f 68/68/68 71/71/71 70/70/70
f 72/72/72 74/74/74 73/73/73
f 72/72/72 75/75/75 74/74/74
f 76/76/76 72/72/72 73/73/73
f 77/77/77 76/76/76 73/73/73
f 77/77/77 73/73/73 78/78/78
f 79/79/79 81/81/81 80/80/80
f 82/82/82 84/84/84 83/83/83
f 82/82/82 85/85/85 84/84/84
f 86/86/86 88/88/88 87/87/87
f 89/89/89 91/91/91 90/90/90
f 89/89/89 92/92/92 91/91/91
f 93/93/93 95/95/95 94/94/94
f 93/93/93 96/96/96 95/95/95
f 97/97/97 99/99/99 98/98/98
f 97/97/97 100/100/100 99/99/99
f 101/101/101 103/103/103 102/102/102
f 101/101/101 104/104/104 103/103/103
f 105/105/105 107/107/107 106/106/106
f 105/105/105 108/108/108 107/107/107
f 105/105/105 109/109/109 108/108/108
f 110/110/110 109/109/109 105/105/105
f 110/110/110 111/111/111 109/109/109
f 112/112/112 114/114/114 113/113/113
f 112/112/112 115/115/115 114/114/114
f 116/116/116 118/118/118 117/117/117
f 116/116/116 119/119/119 118/118/118
f 120/120/120 122/122/122 121/121/121
f 120/120/120 123/123/123 122/122/122
f 124/124/124 126/126/126 125/125/125
f 124/124/124 127/127/127 126/126/126
f 128/128/128 130/130/130 129/129/129
f 128/128/128 131/131/131 130/130/130
f 132/132/132 134/134/134 133/133/133
