#SM_Env_Sidewalk_01_(3)_332_4.obj

v 4.9664 0.02436665 -2.439842
v 2.552811 0 -2.463654
v 2.580261 0.01080331 -2.540985
v 4.966408 0 -2.5
v 5 0 0
v 2.469917 0 0
v 2.501823 0 -0.06304932
v 4.9664 0.0008423775 -0.06222534
v 2.441063 0.001182646 -0.0628891
v 0.03358459 0 -0.039505
v 0 0 0
v 4.966408 0 -2.5
v 2.580261 0.01080331 -2.540985
v 2.565453 0.0002123378 -4.938156
v 4.945282 0 -4.96048
v 0.07658386 0 -2.556984
v 0 0 -2.536041
v 0 0 -5
v 0.02738953 0.01881625 -4.938972
v 0.06583405 0 -2.489075
v 0 0 -2.536041
v 0.07658386 0 -2.556984
v 0 0 0
v 0.03358459 0 -0.039505
v 2.580261 0.01080331 -2.540985
v 2.492661 0 -2.523811
v 2.504753 0 -4.93782
v 2.565453 0.0002123378 -4.938156
v 2.533798 0 -5
v 2.552811 0 -2.463654
v 2.475235 0.03420928 -2.458885
v 2.492661 0 -2.523811
v 2.475235 0.03420928 -2.458885
v 0.06583405 0 -2.489075
v 0.07658386 0 -2.556984
v 2.492661 0 -2.523811
v 2.492661 0 -2.523811
v 0.07658386 0 -2.556984
v 0.02738953 0.01881625 -4.938972
v 2.504753 0 -4.93782
v 5 0 -2.469925
v 4.9664 0.02436665 -2.439842
v 4.966408 0 -2.5
v 5 0 -5
v 5 0 -2.469925
v 4.966408 0 -2.5
v 4.945282 0 -4.96048
v 2.552811 0 -2.463654
v 2.492661 0 -2.523811
v 2.580261 0.01080331 -2.540985
v 5 0 -2.469925
v 5 0 0
v 4.9664 0.0008423775 -0.06222534
v 4.9664 0.02436665 -2.439842
v 2.501823 0 -0.06304932
v 2.552811 0 -2.463654
v 4.9664 0.02436665 -2.439842
v 4.9664 0.0008423775 -0.06222534
v 2.441063 0.001182646 -0.0628891
v 2.475235 0.03420928 -2.458885
v 2.552811 0 -2.463654
v 2.501823 0 -0.06304932
v 0.03358459 0 -0.039505
v 0.06583405 0 -2.489075
v 2.475235 0.03420928 -2.458885
v 2.441063 0.001182646 -0.0628891
v 2.565453 0.0002123378 -4.938156
v 2.533798 0 -5
v 5 0 -5
v 4.945282 0 -4.96048
v 0.02738953 0.01881625 -4.938972
v 0 0 -5
v 2.533798 0 -5
v 2.504753 0 -4.93782

vn -0.001482814 0.9951392 -0.09846672
vn -0.001482814 0.9951392 -0.09846672
vn 0.0004190324 0.9987295 -0.05039072
vn 0.0004190324 0.9987295 -0.05039072
vn -0.0001697615 0.9999774 0.006726388
vn 0.006376461 0.9999357 0.009376258
vn 0.004708102 0.9999634 0.007151983
vn -0.002680979 0.9999796 0.005797064
vn 0.003980825 0.9999481 0.009372552
vn -0.00251462 0.9999783 0.006085167
vn -9.356605E-05 0.9999834 0.005770359
vn 0.0002793253 0.9994356 -0.03359026
vn -0.0245376 0.9991093 -0.03432931
vn -0.01888857 0.9998203 -0.001610257
vn 0.0007733018 0.9999987 -0.001428146
vn -0.1801845 0.9836166 0.005648439
vn -0.1801845 0.9836166 0.005648439
vn -0.1801845 0.9836166 0.005648439
vn -0.1801845 0.9836166 0.005648439
vn -0.002452228 0.9999945 0.002238247
vn 0 1 0
vn 0.001908922 0.9999963 0.001946873
vn -9.356605E-05 0.9999834 0.005770359
vn -0.00251462 0.9999783 0.006085167
vn -0.03603055 0.9993483 -0.002176946
vn -0.03528223 0.9993771 0.0008709003
vn -0.0246879 0.9996951 0.0005805165
vn -0.01888857 0.9998203 -0.001610257
vn -0.001753615 0.999998 -0.00104351
vn 0.3582036 0.862214 -0.3581582
vn 0.3582036 0.862214 -0.3581582
vn 0.3582036 0.862214 -0.3581582
vn -0.003579895 0.9682123 -0.2501044
vn -0.003579895 0.9682123 -0.2501044
vn -0.003579895 0.9682123 -0.2501044
vn -0.003579895 0.9682123 -0.2501044
vn -0.03528223 0.9993771 0.0008709003
vn 0.001908922 0.9999963 0.001946873
vn 0.00381783 0.9999852 0.003893732
vn -0.0246879 0.9996951 0.0005805165
vn 0.3185692 0.8785798 -0.3558246
vn 0.3185692 0.8785798 -0.3558246
vn 0.3185692 0.8785798 -0.3558246
vn 0 0.9999995 -0.001043508
vn 0 1 0
vn 0.001159953 0.9999988 -0.00109871
vn 0.0007733018 0.9999987 -0.001428146
vn -0.1020333 0.9895359 0.1020204
vn -0.1020333 0.9895359 0.1020204
vn -0.1020333 0.9895359 0.1020204
vn 0.349324 0.9369909 0.004547053
vn 0.349324 0.9369909 0.004547053
vn 0.349324 0.9369909 0.004547053
vn 0.349324 0.9369909 0.004547053
vn 0.004708102 0.9999634 0.007151983
vn -0.005192177 0.9999747 0.004867699
vn -0.005192177 0.9999747 0.004867699
vn -0.002680979 0.9999796 0.005797064
vn 0.2482121 0.9686424 0.0110763
vn 0.2482121 0.9686424 0.0110763
vn 0.2482121 0.9686424 0.0110763
vn 0.2482121 0.9686424 0.0110763
vn -0.00251462 0.9999783 0.006085167
vn -0.002452228 0.9999945 0.002238247
vn -0.007356603 0.9999504 0.006714667
vn 0.003980825 0.9999481 0.009372552
vn -0.01888857 0.9998203 -0.001610257
vn -0.001753615 0.999998 -0.00104351
vn 0 0.9999995 -0.001043508
vn 0.0007733018 0.9999987 -0.001428146
vn 0.003746514 0.9885389 -0.1509193
vn 0.003746514 0.9885389 -0.1509193
vn 0.003746514 0.9885389 -0.1509193
vn 0.003746514 0.9885389 -0.1509193

vt 0.1027222 0.2993164
vt 0.1027222 0.2993164
vt 0.1027222 0.2993164
vt 0.1027222 0.2993164
vt 0.09960938 0.3049316
vt 0.09960938 0.3049316
vt 0.09960938 0.3049316
vt 0.09960938 0.3049316
vt 0.09960938 0.3049316
vt 0.09960938 0.3049316
vt 0.09960938 0.3049316
vt 0.1022949 0.3276367
vt 0.1022949 0.3276367
vt 0.1022949 0.3276367
vt 0.1022949 0.3276367
vt 0.1027222 0.2993164
vt 0.1027222 0.2993164
vt 0.1027222 0.2993164
vt 0.1027222 0.2993164
vt 0.1027222 0.2993164
vt 0.1027222 0.2993164
vt 0.1027222 0.2993164
vt 0.1027222 0.2993164
vt 0.1027222 0.2993164
vt 0.1027222 0.2993164
vt 0.1027222 0.2993164
vt 0.1027222 0.2993164
vt 0.1027222 0.2993164
vt 0.1027222 0.2993164
vt 0.1027222 0.2993164
vt 0.1027222 0.2993164
vt 0.1027222 0.2993164
vt 0.1027222 0.2993164
vt 0.1027222 0.2993164
vt 0.1027222 0.2993164
vt 0.1027222 0.2993164
vt 0.1022949 0.3276367
vt 0.1022949 0.3276367
vt 0.1022949 0.3276367
vt 0.1022949 0.3276367
vt 0.1027222 0.2993164
vt 0.1027222 0.2993164
vt 0.1027222 0.2993164
vt 0.1027222 0.2993164
vt 0.1027222 0.2993164
vt 0.1027222 0.2993164
vt 0.1027222 0.2993164
vt 0.1027222 0.2993164
vt 0.1027222 0.2993164
vt 0.1027222 0.2993164
vt 0.1027222 0.2993164
vt 0.1027222 0.2993164
vt 0.1027222 0.2993164
vt 0.1027222 0.2993164
vt 0.1022949 0.3276367
vt 0.1022949 0.3276367
vt 0.1022949 0.3276367
vt 0.1022949 0.3276367
vt 0.1027222 0.2993164
vt 0.1027222 0.2993164
vt 0.1027222 0.2993164
vt 0.1027222 0.2993164
vt 0.1022949 0.3276367
vt 0.1022949 0.3276367
vt 0.1022949 0.3276367
vt 0.1022949 0.3276367
vt 0.1030884 0.3049316
vt 0.1030884 0.3049316
vt 0.1030884 0.3049316
vt 0.1030884 0.3049316
vt 0.09960938 0.3049316
vt 0.09960938 0.3049316
vt 0.09960938 0.3049316
vt 0.09960938 0.3049316

g SM_Env_Sidewalk_01_(3)_332_4
usemtl SM_Env_Sidewalk_01_(3)_332_4
usemap SM_Env_Sidewalk_01_(3)_332_4
f 1/1/1 3/3/3 2/2/2
f 1/1/1 4/4/4 3/3/3
f 5/5/5 7/7/7 6/6/6
f 5/5/5 8/8/8 7/7/7
f 6/6/6 7/7/7 9/9/9
f 6/6/6 9/9/9 10/10/10
f 6/6/6 10/10/10 11/11/11
f 12/12/12 14/14/14 13/13/13
f 12/12/12 15/15/15 14/14/14
f 16/16/16 18/18/18 17/17/17
f 16/16/16 19/19/19 18/18/18
f 20/20/20 22/22/22 21/21/21
f 23/23/23 20/20/20 21/21/21
f 23/23/23 24/24/24 20/20/20
f 25/25/25 27/27/27 26/26/26
f 25/25/25 28/28/28 27/27/27
f 27/27/27 28/28/28 29/29/29
f 30/30/30 32/32/32 31/31/31
f 33/33/33 35/35/35 34/34/34
f 33/33/33 36/36/36 35/35/35
f 37/37/37 39/39/39 38/38/38
f 37/37/37 40/40/40 39/39/39
f 41/41/41 43/43/43 42/42/42
f 44/44/44 46/46/46 45/45/45
f 44/44/44 47/47/47 46/46/46
f 48/48/48 50/50/50 49/49/49
f 51/51/51 53/53/53 52/52/52
f 51/51/51 54/54/54 53/53/53
f 55/55/55 57/57/57 56/56/56
f 55/55/55 58/58/58 57/57/57
f 59/59/59 61/61/61 60/60/60
f 59/59/59 62/62/62 61/61/61
f 63/63/63 65/65/65 64/64/64
f 63/63/63 66/66/66 65/65/65
f 67/67/67 69/69/69 68/68/68
f 67/67/67 70/70/70 69/69/69
f 71/71/71 73/73/73 72/72/72
f 71/71/71 74/74/74 73/73/73
