#SM_Prop_CardboardBox_03_338_3.obj

v -0.2282293 0.1375551 0.2982557
v -0.2282293 0.5106677 0.2982557
v -0.09020474 0.1375551 0.2982558
v -0.08644654 0.1375551 0.2982557
v 0.1637963 0.1647481 0.298256
v 0.3243712 0.5106677 0.298256
v -0.2096923 0.1350687 0.2820238
v -0.1708163 0.1350687 -0.2537118
v 0.3029806 0.1350687 -0.2870552
v 0.2619807 0.1350687 0.2526834
v 0.1589506 0.1375551 -0.3040393
v 0.3243711 0.113283 -0.3040388
v 0.3243711 0.5106677 -0.3040388
v -0.2282295 0.5106677 -0.304039
v -0.07161803 0.117691 -0.3040392
v -0.2282295 0.03534687 -0.304039
v -0.2282293 0.03534687 0.2982557
v 0.3243712 0.03534687 0.298256
v 0.2985819 0.03534687 -0.2690297
v 0.3243713 0.3246909 -0.03568444
v 0.3243712 0.1709583 -0.03914353
v 0.3243711 0.2600154 0.02109161
v 0.3243713 0.2791626 0.03782297
v 0.3243713 0.3328344 0.03782297
v 0.3243715 0.33172 -0.08959486
v 0.3243714 0.4341705 0.001633868
v 0.3243716 0.3339488 0.09022673
v 0.3243713 0.1789799 0.03782297
v 0.3243713 0.2427221 0.03782297
v -0.1893691 0.1375551 -0.2706959
v -0.2282295 0.5106677 -0.304039
v -0.2282292 0.1375551 -0.137752
v -0.2282297 0.6668341 0.5297894
v -0.1966649 0.6668341 0.5135641
v 0.3137521 0.5796063 0.5293949
v 0.3243711 0.5638824 0.5516495
v 0.4735671 0.7620478 0.298256
v 0.4521783 0.7620478 0.2695953
v 0.4021091 0.813427 -0.275386
v 0.4234983 0.813427 -0.3040391
v 0.3243714 0.3020852 -0.5071809
v 0.3183026 0.3095806 -0.5195049
v -0.2221757 0.2681285 -0.4701394
v -0.2282293 0.2606331 -0.4578082
v -0.5016318 0.7207823 -0.3040386
v -0.4703687 0.7294828 -0.294688
v -0.3943672 0.7796892 0.2695951
v -0.4129046 0.7796892 0.2982559
v -0.2096923 0.5323942 0.2820238
v -0.2096923 0.1350687 0.2820238
v 0.2619807 0.1350687 0.2526834
v 0.3029806 0.5323942 0.282023
v 0.3029806 0.5323942 0.282023
v 0.2619807 0.1350687 0.2526834
v 0.3029806 0.1350687 -0.2870552
v 0.3029802 0.5382029 -0.2986959
v 0.3029802 0.5382029 -0.2986959
v 0.3029806 0.1350687 -0.2870552
v -0.1708163 0.1350687 -0.2537118
v -0.2096922 0.5382029 -0.2986959
v -0.2096922 0.5382029 -0.2986959
v -0.1708163 0.1350687 -0.2537118
v -0.2096923 0.1350687 0.2820238
v -0.2096923 0.5323942 0.2820238
v 0.3243712 0.5106677 0.298256
v -0.2282293 0.5106677 0.2982557
v 0.3243711 0.5638824 0.5516495
v -0.2282293 0.5106677 0.2982557
v -0.2282297 0.6668341 0.5297894
v 0.3243711 0.5638824 0.5516495
v 0.3243712 0.5106677 0.298256
v 0.3243711 0.5638824 0.5516495
v 0.3137521 0.5796063 0.5293949
v 0.3029806 0.5323942 0.282023
v 0.3029806 0.5323942 0.282023
v 0.3137521 0.5796063 0.5293949
v -0.2096923 0.5323942 0.2820238
v 0.3137521 0.5796063 0.5293949
v -0.1966649 0.6668341 0.5135641
v -0.2096923 0.5323942 0.2820238
v -0.2096923 0.5323942 0.2820238
v -0.1966649 0.6668341 0.5135641
v -0.2282297 0.6668341 0.5297894
v -0.2282293 0.5106677 0.2982557
v 0.3243711 0.5106677 -0.3040388
v 0.3243714 0.3020852 -0.5071809
v -0.2282295 0.5106677 -0.304039
v 0.3243714 0.3020852 -0.5071809
v -0.2282293 0.2606331 -0.4578082
v -0.2282295 0.5106677 -0.304039
v -0.2282295 0.5106677 -0.304039
v -0.2282293 0.2606331 -0.4578082
v -0.2221757 0.2681285 -0.4701394
v -0.2096922 0.5382029 -0.2986959
v 0.3029802 0.5382029 -0.2986959
v -0.2096922 0.5382029 -0.2986959
v 0.3183026 0.3095806 -0.5195049
v -0.2096922 0.5382029 -0.2986959
v -0.2221757 0.2681285 -0.4701394
v 0.3183026 0.3095806 -0.5195049
v 0.3029802 0.5382029 -0.2986959
v 0.3183026 0.3095806 -0.5195049
v 0.3243714 0.3020852 -0.5071809
v 0.3243711 0.5106677 -0.3040388
v 0.3243712 0.5106677 0.298256
v 0.4735671 0.7620478 0.298256
v 0.3243711 0.5106677 -0.3040388
v 0.4735671 0.7620478 0.298256
v 0.4234983 0.813427 -0.3040391
v 0.3243711 0.5106677 -0.3040388
v 0.3243711 0.5106677 -0.3040388
v 0.4234983 0.813427 -0.3040391
v 0.4021091 0.813427 -0.275386
v 0.3029802 0.5382029 -0.2986959
v 0.3029806 0.5323942 0.282023
v 0.3029802 0.5382029 -0.2986959
v 0.4521783 0.7620478 0.2695953
v 0.3029802 0.5382029 -0.2986959
v 0.4021091 0.813427 -0.275386
v 0.4521783 0.7620478 0.2695953
v 0.3029806 0.5323942 0.282023
v 0.4521783 0.7620478 0.2695953
v 0.4735671 0.7620478 0.298256
v 0.3243712 0.5106677 0.298256
v -0.2282295 0.5106677 -0.304039
v -0.5016318 0.7207823 -0.3040386
v -0.4129046 0.7796892 0.2982559
v -0.2282293 0.5106677 0.2982557
v -0.2282293 0.5106677 0.2982557
v -0.4129046 0.7796892 0.2982559
v -0.3943672 0.7796892 0.2695951
v -0.2096923 0.5323942 0.2820238
v -0.2096922 0.5382029 -0.2986959
v -0.2096923 0.5323942 0.2820238
v -0.4703687 0.7294828 -0.294688
v -0.2096923 0.5323942 0.2820238
v -0.3943672 0.7796892 0.2695951
v -0.4703687 0.7294828 -0.294688
v -0.2096922 0.5382029 -0.2986959
v -0.4703687 0.7294828 -0.294688
v -0.5016318 0.7207823 -0.3040386
v -0.2282295 0.5106677 -0.304039
v 0.324371 0.1570757 0.09166852
v 0.3243713 0.1789799 0.03782297
v 0.3243712 0.1709583 -0.03914353
v 0.3243711 0.113283 -0.3040388
v 0.3243711 0.5106677 -0.3040388
v 0.3243715 0.33172 -0.08959486
v 0.3243713 0.3246909 -0.03568444
v 0.3243714 0.4341705 0.001633868
v 0.3243712 0.5106677 0.298256
v 0.3243716 0.3339488 0.09022673
v 0.3243713 0.2427221 0.03782297
v 0.3243713 0.2791626 0.03782297
v 0.3243713 0.3328344 0.03782297
v 0.3099455 0.1375551 0.2709944
v 0.3243713 0.2427221 0.03782297
v 0.3243713 0.2791626 0.03782297
v 0.3243711 0.2600154 0.02109161
v -0.1893691 0.1375551 -0.2706959
v -0.2282295 0.03534687 -0.304039
v -0.07161803 0.117691 -0.3040392
v 0.3243711 0.113283 -0.3040388
v 0.2985819 0.03534687 -0.2690297
v 0.3243712 0.03534687 0.298256
v 0.324371 0.1570757 0.09166852
v 0.3099455 0.1375551 0.2709944
v 0.3243712 0.03534687 0.298256
v 0.1637963 0.1647481 0.298256
v -0.2282293 0.1375551 0.2982557
v -0.2282293 0.03534687 0.2982557
v -0.2282294 0.1647481 0.1368066
v -0.2282292 0.1375551 -0.137752
v -0.2282295 0.03534687 -0.304039
v -0.2282293 0.03534687 0.2982557
v -0.2282293 0.1375551 0.2982557
v -0.09020474 0.1375551 0.2982558
v -0.08644654 0.1375551 0.2982557
v 0.3243712 0.03534687 0.298256
v 0.1637963 0.1647481 0.298256
v 0.3243712 0.03534687 0.298256
v 0.3099455 0.1375551 0.2709944
v 0.324371 0.1570757 0.09166852
v 0.2985819 0.03534687 -0.2690297
v 0.3243711 0.113283 -0.3040388
v 0.1589506 0.1375551 -0.3040393
v -0.2282295 0.03534687 -0.304039
v 0.2985819 0.03534687 -0.2690297
v 0.1589506 0.1375551 -0.3040393
v -0.07161803 0.117691 -0.3040392
v -0.2282295 0.03534687 -0.304039
v -0.1893691 0.1375551 -0.2706959
v -0.2282292 0.1375551 -0.137752
v -0.2282293 0.5106677 0.2982557
v -0.2282293 0.1375551 0.2982557
v -0.2282294 0.1647481 0.1368066
v -0.2282295 0.5106677 -0.304039
v -0.2282292 0.1375551 -0.137752
v 0.3243712 0.5106677 0.298256
v 0.3099455 0.1375551 0.2709944
v 0.1637963 0.1647481 0.298256
v -0.2282295 0.5106677 -0.304039
v -0.1893691 0.1375551 -0.2706959
v -0.07161803 0.117691 -0.3040392

vn -0.8100224 0 0.586399
vn -0.8100224 0 0.586399
vn -0.8100224 0 0.586399
vn -0.8100224 0 0.586399
vn -0.8100224 0 0.586399
vn -0.8100224 0 0.586399
vn 0 1 0
vn 0 1 0
vn 0 1 0
vn 0 1 0
vn 0.8100224 0 -0.586399
vn 0.8100224 0 -0.586399
vn 0.8100224 0 -0.586399
vn 0.8100224 0 -0.586399
vn 0.8100224 0 -0.586399
vn 0 -1 0
vn 0 -1 0
vn 0 -1 0
vn 0 -1 0
vn 0.586399 0 0.8100224
vn 0.586399 0 0.8100224
vn 0.586399 0 0.8100224
vn 0.586399 0 0.8100224
vn 0.586399 0 0.8100224
vn 0.586399 0 0.8100224
vn 0.586399 0 0.8100224
vn 0.586399 0 0.8100224
vn 0.586399 0 0.8100224
vn 0.586399 0 0.8100224
vn -0.3329883 -0.1240751 -0.9347322
vn -0.3329883 -0.1240751 -0.9347322
vn -0.3329883 -0.1240751 -0.9347322
vn -0.2726274 0.8864968 0.3738953
vn -0.2726274 0.8864968 0.3738953
vn -0.2726274 0.8864968 0.3738953
vn -0.2726274 0.8864968 0.3738953
vn -0.07226337 0.9960127 0.05231357
vn -0.07226337 0.9960127 0.05231357
vn -0.07226337 0.9960127 0.05231357
vn -0.07226337 0.9960127 0.05231357
vn 0.431255 -0.8543071 -0.2901354
vn 0.431255 -0.8543071 -0.2901354
vn 0.431255 -0.8543071 -0.2901354
vn 0.431255 -0.8543071 -0.2901354
vn -0.06302677 0.9785734 -0.1960146
vn -0.06302677 0.9785734 -0.1960146
vn -0.06302677 0.9785734 -0.1960146
vn -0.06302677 0.9785734 -0.1960146
vn 0.7916073 0.03841415 -0.6098214
vn 0.7916073 0.03841415 -0.6098214
vn 0.7916073 0.03841415 -0.6098214
vn 0.7916073 0.03841415 -0.6098214
vn -0.5558594 0.05191895 -0.8296534
vn -0.5558594 0.05191895 -0.8296534
vn -0.5558594 0.05191895 -0.8296534
vn -0.5558594 0.05191895 -0.8296534
vn -0.787722 0.07163533 0.6118518
vn -0.787722 0.07163533 0.6118518
vn -0.787722 0.07163533 0.6118518
vn -0.787722 0.07163533 0.6118518
vn 0.5569274 0.05044292 0.8290279
vn 0.5569274 0.05044292 0.8290279
vn 0.5569274 0.05044292 0.8290279
vn 0.5569274 0.05044292 0.8290279
vn -0.16648 -0.9786518 0.1205198
vn -0.16648 -0.9786518 0.1205198
vn -0.16648 -0.9786518 0.1205198
vn -0.5480144 -0.816416 0.1820574
vn -0.5480144 -0.816416 0.1820574
vn -0.5480144 -0.816416 0.1820574
vn 0.5841632 0.5632619 0.5843709
vn 0.5841632 0.5632619 0.5843709
vn 0.5841632 0.5632619 0.5843709
vn 0.5841632 0.5632619 0.5843709
vn 0.1518557 0.9822701 -0.1099328
vn 0.1518557 0.9822701 -0.1099328
vn 0.1518557 0.9822701 -0.1099328
vn 0.5011863 0.8495898 -0.1643457
vn 0.5011863 0.8495898 -0.1643457
vn 0.5011863 0.8495898 -0.1643457
vn 0.003957719 0.6990921 -0.7150207
vn 0.003957719 0.6990921 -0.7150207
vn 0.003957719 0.6990921 -0.7150207
vn 0.003957719 0.6990921 -0.7150207
vn -0.58029 -0.6977026 0.4200889
vn -0.58029 -0.6977026 0.4200889
vn -0.58029 -0.6977026 0.4200889
vn -0.6182089 -0.5204006 0.589068
vn -0.6182089 -0.5204006 0.589068
vn -0.6182089 -0.5204006 0.589068
vn 0.05669686 0.3837829 -0.9216812
vn 0.05669686 0.3837829 -0.9216812
vn 0.05669686 0.3837829 -0.9216812
vn 0.05669686 0.3837829 -0.9216812
vn 0.5826426 0.694708 -0.421792
vn 0.5826426 0.694708 -0.421792
vn 0.5826426 0.694708 -0.421792
vn 0.6082537 0.5360891 -0.5853512
vn 0.6082537 0.5360891 -0.5853512
vn 0.6082537 0.5360891 -0.5853512
vn 0.8146167 0.4836483 0.3201312
vn 0.8146167 0.4836483 0.3201312
vn 0.8146167 0.4836483 0.3201312
vn 0.8146167 0.4836483 0.3201312
vn 0.5042716 -0.5103844 0.6965758
vn 0.5042716 -0.5103844 0.6965758
vn 0.5042716 -0.5103844 0.6965758
vn 0.6392339 -0.3094392 0.704008
vn 0.6392339 -0.3094392 0.704008
vn 0.6392339 -0.3094392 0.704008
vn 0.3645087 0.2119735 -0.9067528
vn 0.3645087 0.2119735 -0.9067528
vn 0.3645087 0.2119735 -0.9067528
vn 0.3645087 0.2119735 -0.9067528
vn -0.4960671 0.5449901 -0.6759462
vn -0.4960671 0.5449901 -0.6759462
vn -0.4960671 0.5449901 -0.6759462
vn -0.6445386 0.327748 -0.6907612
vn -0.6445386 0.327748 -0.6907612
vn -0.6445386 0.327748 -0.6907612
vn -0.9263461 0.3747716 -0.03780466
vn -0.9263461 0.3747716 -0.03780466
vn -0.9263461 0.3747716 -0.03780466
vn -0.9263461 0.3747716 -0.03780466
vn -0.4924943 -0.6884416 -0.5324448
vn -0.4924943 -0.6884416 -0.5324448
vn -0.4924943 -0.6884416 -0.5324448
vn -0.4924943 -0.6884416 -0.5324448
vn -0.2174999 0.4324082 0.8750527
vn -0.2174999 0.4324082 0.8750527
vn -0.2174999 0.4324082 0.8750527
vn -0.2174999 0.4324082 0.8750527
vn 0.3404174 0.806147 0.4839867
vn 0.3404174 0.806147 0.4839867
vn 0.3404174 0.806147 0.4839867
vn 0.5950133 0.5855739 0.5505109
vn 0.5950133 0.5855739 0.5505109
vn 0.5950133 0.5855739 0.5505109
vn 0.868728 0.1983679 -0.4538302
vn 0.868728 0.1983679 -0.4538302
vn 0.868728 0.1983679 -0.4538302
vn 0.868728 0.1983679 -0.4538302
vn 0.5709904 -0.01101307 0.8208829
vn 0.586399 0 0.8100224
vn 0.586399 0 0.8100224
vn 0.586399 0 0.8100224
vn 0.586399 0 0.8100224
vn 0.586399 0 0.8100224
vn 0.586399 0 0.8100224
vn 0.586399 0 0.8100224
vn 0.5761597 -0.007340681 0.8173043
vn 0.586399 0 0.8100224
vn 0.586399 0 0.8100224
vn 0.586399 0 0.8100224
vn 0.586399 0 0.8100224
vn 0.5231307 -0.04402075 0.8511148
vn 0.586399 0 0.8100224
vn 0.586399 0 0.8100224
vn 0.586399 0 0.8100224
vn 0.621532 0.3703319 -0.6903276
vn 0.621532 0.3703319 -0.6903276
vn 0.621532 0.3703319 -0.6903276
vn 0.5953938 -0.1513479 0.7890501
vn 0.5953938 -0.1513479 0.7890501
vn 0.5953938 -0.1513479 0.7890501
vn 0.5953938 -0.1513479 0.7890501
vn -0.622894 0.280717 0.7302062
vn -0.622894 0.280717 0.7302062
vn -0.622894 0.280717 0.7302062
vn -0.586399 0 -0.8100224
vn -0.586399 0 -0.8100224
vn -0.586399 0 -0.8100224
vn -0.586399 0 -0.8100224
vn -0.586399 0 -0.8100224
vn -0.8100224 0 0.586399
vn -0.8100224 0 0.586399
vn -0.8100224 0 0.586399
vn -0.8100224 0 0.586399
vn -0.8100224 0 0.586399
vn -0.8100224 0 0.586399
vn 0.4971676 0.1643825 0.8519406
vn 0.4971676 0.1643825 0.8519406
vn 0.4971676 0.1643825 0.8519406
vn 0.7095069 -0.3931345 -0.5848463
vn 0.7095069 -0.3931345 -0.5848463
vn 0.7095069 -0.3931345 -0.5848463
vn 0.8236322 -0.1906057 -0.5341343
vn 0.8236322 -0.1906057 -0.5341343
vn 0.8236322 -0.1906057 -0.5341343
vn 0.8236322 -0.1906057 -0.5341343
vn -0.3052809 0.4152498 -0.8569546
vn -0.3052809 0.4152498 -0.8569546
vn -0.3052809 0.4152498 -0.8569546
vn -0.586399 0 -0.8100224
vn -0.586399 0 -0.8100224
vn -0.586399 0 -0.8100224
vn -0.586399 0 -0.8100224
vn -0.586399 0 -0.8100224
vn -0.6969588 -0.07831298 0.7128222
vn -0.6969588 -0.07831298 0.7128222
vn -0.6969588 -0.07831298 0.7128222
vn 0.6007421 -0.1149977 -0.7911286
vn 0.6007421 -0.1149977 -0.7911286
vn 0.6007421 -0.1149977 -0.7911286

vt 0.006984711 0.326416
vt 0.006984711 0.326416
vt 0.006984711 0.326416
vt 0.006984711 0.326416
vt 0.006984711 0.326416
vt 0.006984711 0.326416
vt 0.006984711 0.326416
vt 0.006984711 0.326416
vt 0.006984711 0.326416
vt 0.006984711 0.326416
vt 0.006984711 0.326416
vt 0.006984711 0.326416
vt 0.006984711 0.326416
vt 0.006984711 0.326416
vt 0.006984711 0.326416
vt 0.005794525 0.2819824
vt 0.005794525 0.2819824
vt 0.005794525 0.2819824
vt 0.005794525 0.2819824
vt 0.1273193 0.4689941
vt 0.1273193 0.4689941
vt 0.1273193 0.4689941
vt 0.1273193 0.4689941
vt 0.1273193 0.4689941
vt 0.1273193 0.4689941
vt 0.1273193 0.4689941
vt 0.1273193 0.4689941
vt 0.1273193 0.4689941
vt 0.1273193 0.4689941
vt 0.006984711 0.326416
vt 0.006984711 0.326416
vt 0.006984711 0.326416
vt 0.006984711 0.326416
vt 0.006984711 0.326416
vt 0.006984711 0.326416
vt 0.006984711 0.326416
vt 0.006984711 0.326416
vt 0.006984711 0.326416
vt 0.006984711 0.326416
vt 0.006984711 0.326416
vt 0.006984711 0.326416
vt 0.006984711 0.326416
vt 0.006984711 0.326416
vt 0.006984711 0.326416
vt 0.006984711 0.326416
vt 0.006984711 0.326416
vt 0.006984711 0.326416
vt 0.006984711 0.326416
vt 0.006984711 0.326416
vt 0.006984711 0.326416
vt 0.006984711 0.326416
vt 0.006984711 0.326416
vt 0.006984711 0.326416
vt 0.006984711 0.326416
vt 0.006984711 0.326416
vt 0.006984711 0.326416
vt 0.006984711 0.326416
vt 0.006984711 0.326416
vt 0.006984711 0.326416
vt 0.006984711 0.326416
vt 0.006984711 0.326416
vt 0.006984711 0.326416
vt 0.006984711 0.326416
vt 0.006984711 0.326416
vt 0.006984711 0.326416
vt 0.006984711 0.326416
vt 0.006984711 0.326416
vt 0.006984711 0.326416
vt 0.006984711 0.326416
vt 0.006984711 0.326416
vt 0.006984711 0.326416
vt 0.006984711 0.326416
vt 0.006984711 0.326416
vt 0.006984711 0.326416
vt 0.006984711 0.326416
vt 0.006984711 0.326416
vt 0.006984711 0.326416
vt 0.006984711 0.326416
vt 0.006984711 0.326416
vt 0.006984711 0.326416
vt 0.006984711 0.326416
vt 0.006984711 0.326416
vt 0.006984711 0.326416
vt 0.006984711 0.326416
vt 0.006984711 0.326416
vt 0.006984711 0.326416
vt 0.006984711 0.326416
vt 0.006984711 0.326416
vt 0.006984711 0.326416
vt 0.006984711 0.326416
vt 0.006984711 0.326416
vt 0.006984711 0.326416
vt 0.006984711 0.326416
vt 0.006984711 0.326416
vt 0.006984711 0.326416
vt 0.006984711 0.326416
vt 0.006984711 0.326416
vt 0.006984711 0.326416
vt 0.006984711 0.326416
vt 0.006984711 0.326416
vt 0.006984711 0.326416
vt 0.006984711 0.326416
vt 0.006984711 0.326416
vt 0.006984711 0.326416
vt 0.006984711 0.326416
vt 0.006984711 0.326416
vt 0.006984711 0.326416
vt 0.006984711 0.326416
vt 0.006984711 0.326416
vt 0.006984711 0.326416
vt 0.006984711 0.326416
vt 0.006984711 0.326416
vt 0.006984711 0.326416
vt 0.006984711 0.326416
vt 0.006984711 0.326416
vt 0.006984711 0.326416
vt 0.006984711 0.326416
vt 0.006984711 0.326416
vt 0.006984711 0.326416
vt 0.006984711 0.326416
vt 0.006984711 0.326416
vt 0.006984711 0.326416
vt 0.006984711 0.326416
vt 0.006984711 0.326416
vt 0.006984711 0.326416
vt 0.006984711 0.326416
vt 0.006984711 0.326416
vt 0.006984711 0.326416
vt 0.006984711 0.326416
vt 0.006984711 0.326416
vt 0.006984711 0.326416
vt 0.006984711 0.326416
vt 0.006984711 0.326416
vt 0.006984711 0.326416
vt 0.006984711 0.326416
vt 0.006984711 0.326416
vt 0.006984711 0.326416
vt 0.006984711 0.326416
vt 0.006984711 0.326416
vt 0.006984711 0.326416
vt 0.006984711 0.326416
vt 0.006984711 0.326416
vt 0.006984711 0.326416
vt 0.006984711 0.326416
vt 0.006984711 0.326416
vt 0.006984711 0.326416
vt 0.006984711 0.326416
vt 0.006984711 0.326416
vt 0.006984711 0.326416
vt 0.006984711 0.326416
vt 0.006984711 0.326416
vt 0.006984711 0.326416
vt 0.006984711 0.326416
vt 0.006984711 0.326416
vt 0.006984711 0.326416
vt 0.006984711 0.326416
vt 0.00384903 0.329834
vt 0.00384903 0.329834
vt 0.00384903 0.329834
vt 0.005794525 0.2819824
vt 0.005794525 0.2819824
vt 0.005794525 0.2819824
vt 0.005794525 0.2819824
vt 0.005794525 0.2819824
vt 0.005794525 0.2819824
vt 0.005794525 0.2819824
vt 0.005794525 0.2819824
vt 0.005794525 0.2819824
vt 0.005794525 0.2819824
vt 0.005794525 0.2819824
vt 0.005794525 0.2819824
vt 0.005794525 0.2819824
vt 0.005794525 0.2819824
vt 0.005794525 0.2819824
vt 0.005794525 0.2819824
vt 0.005794525 0.2819824
vt 0.005794525 0.2819824
vt 0.005794525 0.2819824
vt 0.005794525 0.2819824
vt 0.005794525 0.2819824
vt 0.005794525 0.2819824
vt 0.005794525 0.2819824
vt 0.005794525 0.2819824
vt 0.005794525 0.2819824
vt 0.005794525 0.2819824
vt 0.005794525 0.2819824
vt 0.005794525 0.2819824
vt 0.005794525 0.2819824
vt 0.005794525 0.2819824
vt 0.005794525 0.2819824
vt 0.005794525 0.2819824
vt 0.005794525 0.2819824
vt 0.005794525 0.2819824
vt 0.006984711 0.326416
vt 0.006984711 0.326416
vt 0.006984711 0.326416
vt 0.006984711 0.326416
vt 0.006984711 0.326416
vt 0.006984711 0.326416
vt 0.006984711 0.326416
vt 0.006984711 0.326416
vt 0.006984711 0.326416
vt 0.006984711 0.326416
vt 0.006984711 0.326416

g SM_Prop_CardboardBox_03_338_3
usemtl SM_Prop_CardboardBox_03_338_3
usemap SM_Prop_CardboardBox_03_338_3
f 1/1/1 3/3/3 2/2/2
f 4/4/4 2/2/2 3/3/3
f 5/5/5 2/2/2 4/4/4
f 2/2/2 5/5/5 6/6/6
f 7/7/7 9/9/9 8/8/8
f 7/7/7 10/10/10 9/9/9
f 11/11/11 13/13/13 12/12/12
f 14/14/14 13/13/13 11/11/11
f 14/14/14 11/11/11 15/15/15
f 16/16/16 18/18/18 17/17/17
f 16/16/16 19/19/19 18/18/18
f 20/20/20 22/22/22 21/21/21
f 22/22/22 20/20/20 23/23/23
f 23/23/23 20/20/20 24/24/24
f 25/25/25 24/24/24 20/20/20
f 24/24/24 25/25/25 26/26/26
f 24/24/24 26/26/26 27/27/27
f 28/28/28 21/21/21 22/22/22
f 28/28/28 22/22/22 29/29/29
f 30/30/30 32/32/32 31/31/31
f 33/33/33 35/35/35 34/34/34
f 33/33/33 36/36/36 35/35/35
f 37/37/37 39/39/39 38/38/38
f 37/37/37 40/40/40 39/39/39
f 41/41/41 43/43/43 42/42/42
f 41/41/41 44/44/44 43/43/43
f 45/45/45 47/47/47 46/46/46
f 45/45/45 48/48/48 47/47/47
f 49/49/49 51/51/51 50/50/50
f 49/49/49 52/52/52 51/51/51
f 53/53/53 55/55/55 54/54/54
f 53/53/53 56/56/56 55/55/55
f 57/57/57 59/59/59 58/58/58
f 57/57/57 60/60/60 59/59/59
f 61/61/61 63/63/63 62/62/62
f 61/61/61 64/64/64 63/63/63
f 65/65/65 67/67/67 66/66/66
f 68/68/68 70/70/70 69/69/69
f 71/71/71 73/73/73 72/72/72
f 71/71/71 74/74/74 73/73/73
f 75/75/75 77/77/77 76/76/76
f 78/78/78 80/80/80 79/79/79
f 81/81/81 83/83/83 82/82/82
f 81/81/81 84/84/84 83/83/83
f 85/85/85 87/87/87 86/86/86
f 88/88/88 90/90/90 89/89/89
f 91/91/91 93/93/93 92/92/92
f 91/91/91 94/94/94 93/93/93
f 95/95/95 97/97/97 96/96/96
f 98/98/98 100/100/100 99/99/99
f 101/101/101 103/103/103 102/102/102
f 101/101/101 104/104/104 103/103/103
f 105/105/105 107/107/107 106/106/106
f 108/108/108 110/110/110 109/109/109
f 111/111/111 113/113/113 112/112/112
f 111/111/111 114/114/114 113/113/113
f 115/115/115 117/117/117 116/116/116
f 118/118/118 120/120/120 119/119/119
f 121/121/121 123/123/123 122/122/122
f 121/121/121 124/124/124 123/123/123
f 125/125/125 127/127/127 126/126/126
f 125/125/125 128/128/128 127/127/127
f 129/129/129 131/131/131 130/130/130
f 129/129/129 132/132/132 131/131/131
f 133/133/133 135/135/135 134/134/134
f 136/136/136 138/138/138 137/137/137
f 139/139/139 141/141/141 140/140/140
f 139/139/139 142/142/142 141/141/141
f 143/143/143 145/145/145 144/144/144
f 143/143/143 146/146/146 145/145/145
f 147/147/147 145/145/145 146/146/146
f 145/145/145 147/147/147 148/148/148
f 145/145/145 148/148/148 149/149/149
f 147/147/147 150/150/150 148/148/148
f 151/151/151 150/150/150 147/147/147
f 150/150/150 151/151/151 152/152/152
f 153/153/153 143/143/143 144/144/144
f 153/153/153 151/151/151 143/143/143
f 151/151/151 153/153/153 154/154/154
f 151/151/151 154/154/154 152/152/152
f 152/152/152 154/154/154 155/155/155
f 151/151/151 156/156/156 143/143/143
f 157/157/157 159/159/159 158/158/158
f 160/160/160 162/162/162 161/161/161
f 163/163/163 165/165/165 164/164/164
f 163/163/163 166/166/166 165/165/165
f 167/167/167 169/169/169 168/168/168
f 170/170/170 172/172/172 171/171/171
f 171/171/171 172/172/172 173/173/173
f 171/171/171 173/173/173 174/174/174
f 175/175/175 177/177/177 176/176/176
f 175/175/175 178/178/178 177/177/177
f 179/179/179 178/178/178 175/175/175
f 179/179/179 180/180/180 178/178/178
f 181/181/181 183/183/183 182/182/182
f 184/184/184 186/186/186 185/185/185
f 187/187/187 189/189/189 188/188/188
f 187/187/187 190/190/190 189/189/189
f 191/191/191 193/193/193 192/192/192
f 194/194/194 196/196/196 195/195/195
f 197/197/197 196/196/196 194/194/194
f 197/197/197 198/198/198 196/196/196
f 199/199/199 201/201/201 200/200/200
f 202/202/202 204/204/204 203/203/203
