#SM_Prop_Paper_05_327_23.obj

v -0.09519196 -0.0581084 0.03872156
v -0.06289864 -0.1643666 0.0204463
v -0.1547613 -0.1162476 0.03064823
v -0.06289864 -0.1643666 0.0204463
v -0.04440117 -0.08329599 0.1283171
v 0.03616524 -0.1642279 0.02963352
v 0.03476143 -0.09339806 0.1182003
v 0.03476143 -0.09339806 0.1182003
v 0.05551529 -0.05023546 0.05907106
v 0.03616524 -0.1642279 0.02963352
v -0.1660624 -0.1162476 -0.09305716
v -0.1547613 -0.1162476 0.03064823
v -0.1133194 -0.1648395 -0.1157579
v -0.1547613 -0.1162476 0.03064823
v -0.06289864 -0.1643666 0.0204463
v -0.1133194 -0.1648395 -0.1157579
v -0.1133194 -0.1648395 -0.1157579
v -0.06289864 -0.1643666 0.0204463
v 0.02632713 -0.1641609 -0.08988285
v 0.03616524 -0.1642279 0.02963352
v 0.03616524 -0.1642279 0.02963352
v 0.1337585 -0.1256295 0.005525589
v 0.02632713 -0.1641609 -0.08988285
v 0.1337585 -0.1256295 0.005525589
v 0.1818237 -0.09205394 -0.05212593
v 0.02632713 -0.1641609 -0.08988285
v -0.1453114 -0.05808477 -0.1335397
v -0.1133194 -0.1648395 -0.1157579
v -0.09431458 -0.1161002 -0.1863589
v -0.09431458 -0.1161002 -0.1863589
v -0.1133194 -0.1648395 -0.1157579
v -0.02029228 -0.09283684 -0.1602511
v -0.1133194 -0.1648395 -0.1157579
v 0.02632713 -0.1641609 -0.08988285
v -0.02029228 -0.09283684 -0.1602511
v 0.02632713 -0.1641609 -0.08988285
v 0.1818237 -0.09205394 -0.05212593
v 0.03616333 -0.03449925 -0.1073856
v 0.03616524 -0.1642279 0.02963352
v 0.05551529 -0.05023546 0.05907106
v 0.1337585 -0.1256295 0.005525589
v 0.02632713 -0.1641609 -0.08988285
v 0.03616333 -0.03449925 -0.1073856
v -0.02029228 -0.09283684 -0.1602511
v -0.1660624 -0.1162476 -0.09305716
v -0.1133194 -0.1648395 -0.1157579
v -0.1453114 -0.05808477 -0.1335397
v -0.09519196 -0.0581084 0.03872156
v -0.04440117 -0.08329599 0.1283171
v -0.06289864 -0.1643666 0.0204463
v -0.08127022 -0.05579551 0.02166891
v -0.1442442 -0.1057241 0.01841593
v -0.05393219 -0.144887 0.009224415
v 0.02340889 -0.08345913 0.1052577
v -0.03384399 -0.0732901 0.1143842
v 0.02573013 -0.144887 0.01950932
v -0.05393219 -0.144887 0.009224415
v 0.02340889 -0.08345913 0.1052577
v 0.02573013 -0.144887 0.01950932
v 0.03908348 -0.04716551 0.04388571
v -0.05393219 -0.144887 0.009224415
v -0.1442442 -0.1057241 0.01841593
v -0.1031017 -0.144887 -0.1066365
v -0.1442442 -0.1057241 0.01841593
v -0.1555452 -0.1057241 -0.08202457
v -0.1031017 -0.144887 -0.1066365
v 0.02573013 -0.144887 0.01950932
v -0.05393219 -0.144887 0.009224415
v 0.01577187 -0.144887 -0.07975054
v -0.1031017 -0.144887 -0.1066365
v 0.02573013 -0.144887 0.01950932
v 0.01577187 -0.144887 -0.07975054
v 0.1195221 -0.1158885 -0.006477356
v 0.01577187 -0.144887 -0.07975054
v 0.1693954 -0.08345913 -0.04179525
v 0.1195221 -0.1158885 -0.006477356
v -0.1304245 -0.05579551 -0.119081
v -0.08163261 -0.1057241 -0.1755023
v -0.1031017 -0.144887 -0.1066365
v 0.01577187 -0.144887 -0.07975054
v -0.1031017 -0.144887 -0.1066365
v -0.03083611 -0.08345913 -0.1486087
v -0.1031017 -0.144887 -0.1066365
v -0.08163261 -0.1057241 -0.1755023
v -0.03083611 -0.08345913 -0.1486087
v 0.01577187 -0.144887 -0.07975054
v 0.02117348 -0.03353055 -0.09219503
v 0.1693954 -0.08345913 -0.04179525
v 0.02573013 -0.144887 0.01950932
v 0.1195221 -0.1158885 -0.006477356
v 0.03908348 -0.04716551 0.04388571
v 0.01577187 -0.144887 -0.07975054
v -0.03083611 -0.08345913 -0.1486087
v 0.02117348 -0.03353055 -0.09219503
v -0.1555452 -0.1057241 -0.08202457
v -0.1304245 -0.05579551 -0.119081
v -0.1031017 -0.144887 -0.1066365
v -0.08127022 -0.05579551 0.02166891
v -0.05393219 -0.144887 0.009224415
v -0.03384399 -0.0732901 0.1143842
v -0.1547613 -0.1162476 0.03064823
v -0.1442442 -0.1057241 0.01841593
v -0.09519196 -0.0581084 0.03872156
v -0.1555452 -0.1057241 -0.08202457
v -0.1442442 -0.1057241 0.01841593
v -0.08127022 -0.05579551 0.02166891
v -0.09519196 -0.0581084 0.03872156
v -0.03384399 -0.0732901 0.1143842
v 0.02340889 -0.08345913 0.1052577
v -0.04440117 -0.08329599 0.1283171
v 0.02340889 -0.08345913 0.1052577
v 0.03476143 -0.09339806 0.1182003
v -0.04440117 -0.08329599 0.1283171
v 0.03476143 -0.09339806 0.1182003
v 0.02340889 -0.08345913 0.1052577
v 0.05551529 -0.05023546 0.05907106
v 0.02340889 -0.08345913 0.1052577
v 0.03908348 -0.04716551 0.04388571
v 0.05551529 -0.05023546 0.05907106
v -0.1660624 -0.1162476 -0.09305716
v -0.1555452 -0.1057241 -0.08202457
v -0.1547613 -0.1162476 0.03064823
v 0.1195221 -0.1158885 -0.006477356
v 0.1693954 -0.08345913 -0.04179525
v 0.1337585 -0.1256295 0.005525589
v 0.1693954 -0.08345913 -0.04179525
v 0.1818237 -0.09205394 -0.05212593
v 0.1337585 -0.1256295 0.005525589
v -0.09431458 -0.1161002 -0.1863589
v -0.08163261 -0.1057241 -0.1755023
v -0.1453114 -0.05808477 -0.1335397
v -0.02029228 -0.09283684 -0.1602511
v -0.08163261 -0.1057241 -0.1755023
v -0.1304245 -0.05579551 -0.119081
v -0.1453114 -0.05808477 -0.1335397
v -0.03083611 -0.08345913 -0.1486087
v -0.08163261 -0.1057241 -0.1755023
v -0.02029228 -0.09283684 -0.1602511
v 0.1818237 -0.09205394 -0.05212593
v 0.1693954 -0.08345913 -0.04179525
v 0.03616333 -0.03449925 -0.1073856
v 0.1693954 -0.08345913 -0.04179525
v 0.02117348 -0.03353055 -0.09219503
v 0.03616333 -0.03449925 -0.1073856
v 0.03908348 -0.04716551 0.04388571
v 0.1195221 -0.1158885 -0.006477356
v 0.05551529 -0.05023546 0.05907106
v 0.1195221 -0.1158885 -0.006477356
v 0.1337585 -0.1256295 0.005525589
v 0.05551529 -0.05023546 0.05907106
v 0.02117348 -0.03353055 -0.09219503
v -0.03083611 -0.08345913 -0.1486087
v 0.03616333 -0.03449925 -0.1073856
v -0.03083611 -0.08345913 -0.1486087
v -0.02029228 -0.09283684 -0.1602511
v 0.03616333 -0.03449925 -0.1073856
v -0.1304245 -0.05579551 -0.119081
v -0.1555452 -0.1057241 -0.08202457
v -0.1453114 -0.05808477 -0.1335397
v -0.1555452 -0.1057241 -0.08202457
v -0.1660624 -0.1162476 -0.09305716
v -0.1453114 -0.05808477 -0.1335397
v -0.08127022 -0.05579551 0.02166891
v -0.03384399 -0.0732901 0.1143842
v -0.09519196 -0.0581084 0.03872156
v -0.03384399 -0.0732901 0.1143842
v -0.04440117 -0.08329599 0.1283171
v -0.09519196 -0.0581084 0.03872156

vn 0.02459879 -0.1621839 0.9864538
vn 0.02459879 -0.1621839 0.9864538
vn 0.02459879 -0.1621839 0.9864538
vn -0.05508042 -0.7936314 0.6059005
vn -0.03748961 -0.7874714 0.6152099
vn -0.03748961 -0.7874714 0.6152099
vn -0.01988253 -0.7809697 0.6242523
vn 0.9602505 -0.2103795 0.1834656
vn 0.9602505 -0.2103795 0.1834656
vn 0.9602505 -0.2103795 0.1834656
vn -0.6621245 -0.7469487 0.06048802
vn -0.6621245 -0.7469487 0.06048802
vn -0.6621245 -0.7469487 0.06048802
vn -0.4428746 -0.8808924 0.1670052
vn -0.4428746 -0.8808924 0.1670052
vn -0.4428746 -0.8808924 0.1670052
vn 0.004526575 -0.9999882 0.001796515
vn 0.002995132 -0.9999951 0.0008982591
vn 0.002995132 -0.9999951 0.0008982591
vn 0.00146368 -0.9999989 0
vn 0.361144 -0.9320194 -0.0302482
vn 0.361144 -0.9320194 -0.0302482
vn 0.361144 -0.9320194 -0.0302482
vn 0.4448572 -0.8839624 -0.1439182
vn 0.4448572 -0.8839624 -0.1439182
vn 0.4448572 -0.8839624 -0.1439182
vn -0.8330709 -0.3242973 -0.448134
vn -0.8330709 -0.3242973 -0.448134
vn -0.8330709 -0.3242973 -0.448134
vn 0.4071221 -0.7992221 -0.4421491
vn 0.4071221 -0.7992221 -0.4421491
vn 0.4071221 -0.7992221 -0.4421491
vn 0.1420129 -0.6466131 -0.7494824
vn 0.1420129 -0.6466131 -0.7494824
vn 0.1420129 -0.6466131 -0.7494824
vn 0.2983793 -0.1498741 -0.9426069
vn 0.2983793 -0.1498741 -0.9426069
vn 0.2983793 -0.1498741 -0.9426069
vn 0.3356293 -0.2885409 0.8967146
vn 0.3356293 -0.2885409 0.8967146
vn 0.3356293 -0.2885409 0.8967146
vn 0.7515564 -0.1439147 -0.6437791
vn 0.7515564 -0.1439147 -0.6437791
vn 0.7515564 -0.1439147 -0.6437791
vn -0.5983084 -0.3028637 -0.7418225
vn -0.5983084 -0.3028637 -0.7418225
vn -0.5983084 -0.3028637 -0.7418225
vn -0.8582778 -0.3286332 0.3941566
vn -0.8582778 -0.3286332 0.3941566
vn -0.8582778 -0.3286332 0.3941566
vn -0.04710626 0.123994 -0.9911642
vn -0.04710626 0.123994 -0.9911642
vn -0.04710626 0.123994 -0.9911642
vn 0.05175358 0.8125037 -0.5806543
vn 0.06273071 0.8151889 -0.575788
vn 0.06273071 0.8151889 -0.575788
vn 0.07369836 0.8177509 -0.5708345
vn -0.9742158 0.1700982 -0.1482238
vn -0.9742158 0.1700982 -0.1482238
vn -0.9742158 0.1700982 -0.1482238
vn 0.3788483 0.911386 -0.160778
vn 0.3788483 0.911386 -0.160778
vn 0.3788483 0.911386 -0.160778
vn 0.5773239 0.8139273 -0.06495755
vn 0.5773239 0.8139273 -0.06495755
vn 0.5773239 0.8139273 -0.06495755
vn 0 1 0
vn 0 1 0
vn 0 1 0
vn 0 1 0
vn -0.2879456 0.957211 0.02888664
vn -0.2879456 0.957211 0.02888664
vn -0.2879456 0.957211 0.02888664
vn -0.409937 0.8823096 0.2312605
vn -0.409937 0.8823096 0.2312605
vn -0.409937 0.8823096 0.2312605
vn 0.8381053 0.3188577 0.4426166
vn 0.8381053 0.3188577 0.4426166
vn 0.8381053 0.3188577 0.4426166
vn -0.1618659 0.6794227 0.7156705
vn -0.1618659 0.6794227 0.7156705
vn -0.1618659 0.6794227 0.7156705
vn -0.5113643 0.8057469 0.2987952
vn -0.5113643 0.8057469 0.2987952
vn -0.5113643 0.8057469 0.2987952
vn -0.2831077 0.1200715 0.9515424
vn -0.2831077 0.1200715 0.9515424
vn -0.2831077 0.1200715 0.9515424
vn -0.3338911 0.2708445 -0.9028622
vn -0.3338911 0.2708445 -0.9028622
vn -0.3338911 0.2708445 -0.9028622
vn -0.7764244 0.1070671 0.621049
vn -0.7764244 0.1070671 0.621049
vn -0.7764244 0.1070671 0.621049
vn 0.5725046 0.2830611 0.7694899
vn 0.5725046 0.2830611 0.7694899
vn 0.5725046 0.2830611 0.7694899
vn 0.8667204 0.3194638 -0.3830647
vn 0.8667204 0.3194638 -0.3830647
vn 0.8667204 0.3194638 -0.3830647
vn -0.7011281 0.7111428 0.05191707
vn -0.6806098 0.7313244 0.04398708
vn -0.6993367 0.7146639 0.01355313
vn -0.6608248 0.7468483 0.07435265
vn -0.5673296 0.7392136 -0.3629054
vn -0.5673296 0.7392136 -0.3629054
vn -0.5673296 0.7392136 -0.3629054
vn 0.2319747 0.6982566 0.6772189
vn 0.2319747 0.6982566 0.6772189
vn 0.2319747 0.6982566 0.6772189
vn 0.1722314 0.8484485 0.5004715
vn 0.1722314 0.8484485 0.5004715
vn 0.1722314 0.8484485 0.5004715
vn 0.02482406 0.8032804 0.5950834
vn 0.02482406 0.8032804 0.5950834
vn 0.02482406 0.8032804 0.5950834
vn -0.2502612 0.8600194 0.444675
vn -0.2502612 0.8600194 0.444675
vn -0.2502612 0.8600194 0.444675
vn -0.7402599 0.668911 0.06762604
vn -0.7402599 0.668911 0.06762604
vn -0.7204012 0.6923668 0.04062358
vn -0.03110711 0.7577264 0.6518306
vn -0.03110711 0.7577264 0.6518306
vn -0.03110711 0.7577264 0.6518306
vn 0.700147 0.1828099 0.6901991
vn 0.700147 0.1828099 0.6901991
vn 0.700147 0.1828099 0.6901991
vn 0.03692509 0.7005308 -0.7126662
vn 0.03692509 0.7005308 -0.7126662
vn 0.04642697 0.6944956 -0.7179975
vn 0.02741746 0.7064574 -0.7072243
vn 0.3181723 0.8295447 -0.4589356
vn 0.3181723 0.8295447 -0.4589356
vn 0.3181723 0.8295447 -0.4589356
vn 0 0.7760223 -0.6307055
vn 0 0.7760223 -0.6307055
vn 0 0.7760223 -0.6307055
vn 0.4283321 0.8776942 -0.2149061
vn 0.4283321 0.8776942 -0.2149061
vn 0.4283321 0.8776942 -0.2149061
vn 0.2545176 0.9480796 0.1906977
vn 0.2545176 0.9480796 0.1906977
vn 0.2545176 0.9480796 0.1906977
vn 0.4731566 0.809153 -0.3484167
vn 0.4731566 0.809153 -0.3484167
vn 0.4731566 0.809153 -0.3484167
vn 0.636265 0.7588828 -0.1387935
vn 0.636265 0.7588828 -0.1387935
vn 0.636265 0.7588828 -0.1387935
vn -0.3606169 0.8381092 -0.4093024
vn -0.3606169 0.8381092 -0.4093024
vn -0.3606169 0.8381092 -0.4093024
vn -0.1092511 0.723456 -0.6816711
vn -0.1092511 0.723456 -0.6816711
vn -0.1092511 0.723456 -0.6816711
vn -0.5765199 0.6537987 0.4900736
vn -0.5765199 0.6537987 0.4900736
vn -0.5765199 0.6537987 0.4900736
vn -0.8133299 0.4987211 0.2996193
vn -0.8133299 0.4987211 0.2996193
vn -0.8133299 0.4987211 0.2996193
vn 0.03937234 0.9853745 0.1657923
vn 0.03937234 0.9853745 0.1657923
vn 0.03937234 0.9853745 0.1657923
vn -0.2862955 0.8677559 0.4062445
vn -0.2862955 0.8677559 0.4062445
vn -0.2862955 0.8677559 0.4062445

vt 0.1330566 0.3535156
vt 0.1330566 0.3535156
vt 0.1330566 0.3535156
vt 0.1330566 0.3535156
vt 0.1330566 0.3535156
vt 0.1330566 0.3535156
vt 0.1330566 0.3535156
vt 0.1330566 0.3535156
vt 0.1330566 0.3535156
vt 0.1330566 0.3535156
vt 0.1330566 0.3535156
vt 0.1330566 0.3535156
vt 0.1330566 0.3535156
vt 0.1330566 0.3535156
vt 0.1330566 0.3535156
vt 0.1330566 0.3535156
vt 0.1330566 0.3535156
vt 0.1330566 0.3535156
vt 0.1330566 0.3535156
vt 0.1330566 0.3535156
vt 0.1330566 0.3535156
vt 0.1330566 0.3535156
vt 0.1330566 0.3535156
vt 0.1330566 0.3535156
vt 0.1330566 0.3535156
vt 0.1330566 0.3535156
vt 0.1330566 0.3535156
vt 0.1330566 0.3535156
vt 0.1330566 0.3535156
vt 0.1330566 0.3535156
vt 0.1330566 0.3535156
vt 0.1330566 0.3535156
vt 0.1330566 0.3535156
vt 0.1330566 0.3535156
vt 0.1330566 0.3535156
vt 0.1330566 0.3535156
vt 0.1330566 0.3535156
vt 0.1330566 0.3535156
vt 0.1330566 0.3535156
vt 0.1330566 0.3535156
vt 0.1330566 0.3535156
vt 0.1330566 0.3535156
vt 0.1330566 0.3535156
vt 0.1330566 0.3535156
vt 0.1330566 0.3535156
vt 0.1330566 0.3535156
vt 0.1330566 0.3535156
vt 0.1330566 0.3535156
vt 0.1330566 0.3535156
vt 0.1330566 0.3535156
vt 0.1330566 0.3535156
vt 0.1330566 0.3535156
vt 0.1330566 0.3535156
vt 0.1330566 0.3535156
vt 0.1330566 0.3535156
vt 0.1330566 0.3535156
vt 0.1330566 0.3535156
vt 0.1330566 0.3535156
vt 0.1330566 0.3535156
vt 0.1330566 0.3535156
vt 0.1330566 0.3535156
vt 0.1330566 0.3535156
vt 0.1330566 0.3535156
vt 0.1330566 0.3535156
vt 0.1330566 0.3535156
vt 0.1330566 0.3535156
vt 0.1330566 0.3535156
vt 0.1330566 0.3535156
vt 0.1330566 0.3535156
vt 0.1330566 0.3535156
vt 0.1330566 0.3535156
vt 0.1330566 0.3535156
vt 0.1330566 0.3535156
vt 0.1330566 0.3535156
vt 0.1330566 0.3535156
vt 0.1330566 0.3535156
vt 0.1330566 0.3535156
vt 0.1330566 0.3535156
vt 0.1330566 0.3535156
vt 0.1330566 0.3535156
vt 0.1330566 0.3535156
vt 0.1330566 0.3535156
vt 0.1330566 0.3535156
vt 0.1330566 0.3535156
vt 0.1330566 0.3535156
vt 0.1330566 0.3535156
vt 0.1330566 0.3535156
vt 0.1330566 0.3535156
vt 0.1330566 0.3535156
vt 0.1330566 0.3535156
vt 0.1330566 0.3535156
vt 0.1330566 0.3535156
vt 0.1330566 0.3535156
vt 0.1330566 0.3535156
vt 0.1330566 0.3535156
vt 0.1330566 0.3535156
vt 0.1330566 0.3535156
vt 0.1330566 0.3535156
vt 0.1330566 0.3535156
vt 0.1330566 0.3535156
vt 0.1330566 0.3535156
vt 0.1330566 0.3535156
vt 0.1330566 0.3535156
vt 0.1330566 0.3535156
vt 0.1330566 0.3535156
vt 0.1330566 0.3535156
vt 0.1330566 0.3535156
vt 0.1330566 0.3535156
vt 0.1330566 0.3535156
vt 0.1330566 0.3535156
vt 0.1330566 0.3535156
vt 0.1330566 0.3535156
vt 0.1330566 0.3535156
vt 0.1330566 0.3535156
vt 0.1330566 0.3535156
vt 0.1330566 0.3535156
vt 0.1330566 0.3535156
vt 0.1330566 0.3535156
vt 0.1330566 0.3535156
vt 0.1330566 0.3535156
vt 0.1330566 0.3535156
vt 0.1330566 0.3535156
vt 0.1330566 0.3535156
vt 0.1330566 0.3535156
vt 0.1330566 0.3535156
vt 0.1330566 0.3535156
vt 0.1330566 0.3535156
vt 0.1330566 0.3535156
vt 0.1330566 0.3535156
vt 0.1330566 0.3535156
vt 0.1330566 0.3535156
vt 0.1330566 0.3535156
vt 0.1330566 0.3535156
vt 0.1330566 0.3535156
vt 0.1330566 0.3535156
vt 0.1330566 0.3535156
vt 0.1330566 0.3535156
vt 0.1330566 0.3535156
vt 0.1330566 0.3535156
vt 0.1330566 0.3535156
vt 0.1330566 0.3535156
vt 0.1330566 0.3535156
vt 0.1330566 0.3535156
vt 0.1330566 0.3535156
vt 0.1330566 0.3535156
vt 0.1330566 0.3535156
vt 0.1330566 0.3535156
vt 0.1330566 0.3535156
vt 0.1330566 0.3535156
vt 0.1330566 0.3535156
vt 0.1330566 0.3535156
vt 0.1330566 0.3535156
vt 0.1330566 0.3535156
vt 0.1330566 0.3535156
vt 0.1330566 0.3535156
vt 0.1330566 0.3535156
vt 0.1330566 0.3535156
vt 0.1330566 0.3535156
vt 0.1330566 0.3535156
vt 0.1330566 0.3535156
vt 0.1330566 0.3535156
vt 0.1330566 0.3535156
vt 0.1330566 0.3535156
vt 0.1330566 0.3535156
vt 0.1330566 0.3535156
vt 0.1330566 0.3535156
vt 0.1330566 0.3535156
vt 0.1330566 0.3535156

g SM_Prop_Paper_05_327_23
usemtl SM_Prop_Paper_05_327_23
usemap SM_Prop_Paper_05_327_23
f 1/1/1 3/3/3 2/2/2
f 4/4/4 6/6/6 5/5/5
f 5/5/5 6/6/6 7/7/7
f 8/8/8 10/10/10 9/9/9
f 11/11/11 13/13/13 12/12/12
f 14/14/14 16/16/16 15/15/15
f 17/17/17 19/19/19 18/18/18
f 18/18/18 19/19/19 20/20/20
f 21/21/21 23/23/23 22/22/22
f 24/24/24 26/26/26 25/25/25
f 27/27/27 29/29/29 28/28/28
f 30/30/30 32/32/32 31/31/31
f 33/33/33 35/35/35 34/34/34
f 36/36/36 38/38/38 37/37/37
f 39/39/39 41/41/41 40/40/40
f 42/42/42 44/44/44 43/43/43
f 45/45/45 47/47/47 46/46/46
f 48/48/48 50/50/50 49/49/49
f 51/51/51 53/53/53 52/52/52
f 54/54/54 56/56/56 55/55/55
f 55/55/55 56/56/56 57/57/57
f 58/58/58 60/60/60 59/59/59
f 61/61/61 63/63/63 62/62/62
f 64/64/64 66/66/66 65/65/65
f 67/67/67 69/69/69 68/68/68
f 68/68/68 69/69/69 70/70/70
f 71/71/71 73/73/73 72/72/72
f 74/74/74 76/76/76 75/75/75
f 77/77/77 79/79/79 78/78/78
f 80/80/80 82/82/82 81/81/81
f 83/83/83 85/85/85 84/84/84
f 86/86/86 88/88/88 87/87/87
f 89/89/89 91/91/91 90/90/90
f 92/92/92 94/94/94 93/93/93
f 95/95/95 97/97/97 96/96/96
f 98/98/98 100/100/100 99/99/99
f 101/101/101 103/103/103 102/102/102
f 104/104/104 101/101/101 102/102/102
f 105/105/105 107/107/107 106/106/106
f 108/108/108 110/110/110 109/109/109
f 111/111/111 113/113/113 112/112/112
f 114/114/114 116/116/116 115/115/115
f 117/117/117 119/119/119 118/118/118
f 120/120/120 122/122/122 121/121/121
f 123/123/123 125/125/125 124/124/124
f 126/126/126 128/128/128 127/127/127
f 129/129/129 131/131/131 130/130/130
f 130/130/130 132/132/132 129/129/129
f 133/133/133 135/135/135 134/134/134
f 136/136/136 138/138/138 137/137/137
f 139/139/139 141/141/141 140/140/140
f 142/142/142 144/144/144 143/143/143
f 145/145/145 147/147/147 146/146/146
f 148/148/148 150/150/150 149/149/149
f 151/151/151 153/153/153 152/152/152
f 154/154/154 156/156/156 155/155/155
f 157/157/157 159/159/159 158/158/158
f 160/160/160 162/162/162 161/161/161
f 163/163/163 165/165/165 164/164/164
f 166/166/166 168/168/168 167/167/167
